SplineFontDB: 3.2
FontName: Untitled1
FullName: Untitled1
FamilyName: Untitled1
Weight: Regular
Copyright: Copyright (c) 2023, Dell
UComments: "2023-12-19: Created with FontForge (http://fontforge.org)"
Version: 001.000
ItalicAngle: 0
UnderlinePosition: -100
UnderlineWidth: 50
Ascent: 800
Descent: 200
InvalidEm: 0
LayerCount: 2
Layer: 0 0 "Back" 1
Layer: 1 0 "Fore" 0
XUID: [1021 641 -1616136743 3538]
OS2Version: 0
OS2_WeightWidthSlopeOnly: 0
OS2_UseTypoMetrics: 1
CreationTime: 1702974998
ModificationTime: 1702975422
OS2TypoAscent: 0
OS2TypoAOffset: 1
OS2TypoDescent: 0
OS2TypoDOffset: 1
OS2TypoLinegap: 0
OS2WinAscent: 0
OS2WinAOffset: 1
OS2WinDescent: 0
OS2WinDOffset: 1
HheadAscent: 0
HheadAOffset: 1
HheadDescent: 0
HheadDOffset: 1
OS2Vendor: 'PfEd'
DEI: 91125
Encoding: ISO8859-1
UnicodeInterp: none
NameList: AGL For New Fonts
DisplaySize: -48
AntiAlias: 1
FitToEm: 0
WidthSeparation: 20
WinInfo: 0 38 12
BeginChars: 260 97

StartChar: d
Encoding: 100 100 0
Width: 457
Flags: HW
LayerCount: 2
Fore
SplineSet
423.84375 697.142578125 m 2
 423.84375 696.857421875 l 2
 414.415039062 470.571289062 421.84375 244.286132812 445.84375 18.857421875 c 0
 448.129882812 -2.857421875 406.701171875 -7.7138671875 403.272460938 13.7138671875 c 0
 401.272460938 26.857421875 399.272460938 39.7138671875 397.272460938 52.857421875 c 1
 336.701171875 -10 227.84375 -13.4287109375 147.84375 28.857421875 c 0
 -19.013671875 117.142578125 -57.8701171875 369.713867188 149.55859375 438.857421875 c 0
 237.272460938 468.286132812 335.84375 435.713867188 378.986328125 360.571289062 c 1
 375.272460938 472.857421875 375.84375 584.857421875 380.415039062 697.142578125 c 0
 381.55859375 722 424.986328125 722.286132812 423.84375 697.142578125 c 2
382.986328125 104 m 1
 383.272460938 103.713867188 l 1
 384.701171875 106.286132812 386.701171875 108.571289062 388.701171875 110 c 0
 384.986328125 134.286132812 381.272460938 158.286132812 377.55859375 182.571289062 c 0
 369.84375 233.142578125 368.129882812 290.571289062 344.129882812 337.428710938 c 0
 296.701171875 430 167.55859375 429.428710938 95.84375 361.713867188 c 0
 19.84375 290 43.55859375 175.713867188 111.272460938 106.571289062 c 0
 180.415039062 35.7138671875 326.129882812 1.7138671875 382.986328125 104 c 1
EndSplineSet
EndChar

StartChar: e
Encoding: 101 101 1
Width: 549
Flags: HW
LayerCount: 2
Fore
SplineSet
505.369140625 172.286132812 m 1
 504.797851562 172 l 1
 514.797851562 192.286132812 545.655273438 174.571289062 535.655273438 154.571289062 c 0
 477.083984375 35.4287109375 335.083984375 -27.142578125 204.51171875 11.4287109375 c 0
 85.9404296875 46.2861328125 3.083984375 158.286132812 8.2265625 279.142578125 c 0
 13.369140625 401.713867188 105.940429688 498 229.940429688 515.142578125 c 0
 286.797851562 523.142578125 356.2265625 518.571289062 405.655273438 487.713867188 c 0
 450.2265625 460 476.2265625 400.286132812 438.797851562 356.571289062 c 0
 421.655273438 336.571289062 396.2265625 325.713867188 371.369140625 317.713867188 c 0
 337.369140625 306.857421875 302.2265625 298.571289062 267.369140625 290.286132812 c 0
 194.2265625 272.857421875 119.940429688 258.857421875 45.369140625 247.713867188 c 0
 46.2265625 239.713867188 47.083984375 232 48.7978515625 224 c 0
 69.9404296875 122.857421875 156.51171875 45.142578125 262.797851562 35.4287109375 c 0
 365.655273438 26.2861328125 461.369140625 82.5712890625 505.369140625 172.286132812 c 1
188.797851562 470.286132812 m 1
 189.083984375 470 l 1
 103.940429688 442 50.2265625 365.713867188 44.7978515625 282.286132812 c 1
 107.083984375 291.713867188 169.083984375 303.142578125 230.51171875 317.142578125 c 0
 264.2265625 324.857421875 297.655273438 333.142578125 330.797851562 342.286132812 c 0
 356.51171875 349.428710938 388.2265625 355.428710938 407.940429688 374.857421875 c 0
 429.369140625 396 422.2265625 426.857421875 402.2265625 446.571289062 c 0
 384.51171875 464.286132812 358.51171875 472.286132812 334.51171875 477.428710938 c 0
 286.51171875 487.713867188 235.369140625 485.428710938 188.797851562 470.286132812 c 1
EndSplineSet
EndChar

StartChar: f
Encoding: 102 102 2
Width: 406
Flags: HW
LayerCount: 2
Fore
SplineSet
386.932617188 668.571289062 m 0
 405.50390625 654.286132812 387.50390625 620.571289062 368.932617188 635.142578125 c 0
 319.790039062 673.428710938 249.50390625 704.857421875 213.50390625 630.857421875 c 0
 195.21875 593.142578125 188.075195312 546.857421875 183.790039062 502 c 1
 229.21875 510.286132812 274.932617188 518.286132812 320.361328125 526.286132812 c 0
 342.932617188 530.286132812 352.361328125 492.857421875 329.790039062 488.857421875 c 0
 280.075195312 480 230.075195312 471.142578125 180.361328125 462.286132812 c 0
 180.075195312 457.142578125 179.50390625 452 179.21875 446.857421875 c 0
 167.790039062 305.428710938 177.50390625 162.857421875 207.50390625 24.5712890625 c 0
 212.646484375 0.2861328125 178.075195312 -10 172.932617188 14.2861328125 c 0
 141.50390625 159.142578125 131.790039062 308.286132812 144.361328125 456 c 1
 106.361328125 449.142578125 68.361328125 442.571289062 30.361328125 435.713867188 c 0
 7.7900390625 431.713867188 -1.638671875 469.142578125 20.9326171875 473.142578125 c 0
 63.50390625 480.571289062 106.075195312 488.286132812 148.646484375 495.713867188 c 0
 150.075195312 506.286132812 150.932617188 516.857421875 152.361328125 527.428710938 c 0
 160.361328125 586.857421875 170.646484375 661.428710938 220.646484375 698 c 0
 275.21875 737.428710938 339.790039062 705.428710938 386.932617188 668.571289062 c 0
EndSplineSet
EndChar

StartChar: g
Encoding: 103 103 3
Width: 425
Flags: HW
LayerCount: 2
Fore
SplineSet
401.213867188 496.857421875 m 1
 401.213867188 497.428710938 l 1
 419.499023438 490.286132812 415.78515625 465.428710938 401.499023438 461.713867188 c 0
 400.641601562 350 400.0703125 238.286132812 398.641601562 126.571289062 c 0
 397.213867188 37.7138671875 396.356445312 -68.857421875 344.927734375 -146.571289062 c 0
 228.927734375 -322.857421875 43.4990234375 -9.142578125 9.2138671875 85.4287109375 c 0
 0.927734375 107.713867188 37.4990234375 117.142578125 45.4990234375 95.142578125 c 0
 72.927734375 19.4287109375 116.641601562 -49.4287109375 175.213867188 -106.286132812 c 0
 202.356445312 -132.571289062 245.78515625 -181.428710938 286.641601562 -155.713867188 c 0
 320.0703125 -134.857421875 333.499023438 -88 342.641601562 -53.142578125 c 0
 364.356445312 29.7138671875 360.641601562 117.142578125 361.499023438 202 c 0
 362.0703125 253.142578125 362.356445312 304.571289062 362.927734375 356 c 1
 357.78515625 340.286132812 352.641601562 324.571289062 347.213867188 308.857421875 c 0
 335.213867188 274.286132812 320.927734375 238.286132812 293.78515625 212 c 0
 232.356445312 152.286132812 136.0703125 182.857421875 95.78515625 249.713867188 c 0
 52.6416015625 320.857421875 73.2138671875 410.857421875 135.499023438 464.857421875 c 0
 208.641601562 528.286132812 313.213867188 531.428710938 401.213867188 496.857421875 c 1
294.927734375 279.142578125 m 2
 294.927734375 279.428710938 l 2
 324.641601562 339.713867188 340.927734375 408 361.499023438 472 c 1
 296.0703125 490.571289062 223.213867188 487.713867188 168.0703125 444 c 0
 114.356445312 401.428710938 91.78515625 328.286132812 128.356445312 268.286132812 c 0
 147.213867188 237.142578125 182.927734375 212.571289062 221.78515625 216 c 0
 258.356445312 219.142578125 280.641601562 250 294.927734375 279.142578125 c 2
EndSplineSet
EndChar

StartChar: h
Encoding: 104 104 4
Width: 419
Flags: HW
LayerCount: 2
Fore
SplineSet
369.720703125 333.428710938 m 1
 370.291992188 333.713867188 l 1
 391.720703125 229.428710938 404.006835938 123.713867188 408.006835938 17.4287109375 c 0
 408.864257812 -5.4287109375 370.864257812 -5.4287109375 370.006835938 17.4287109375 c 0
 366.864257812 105.142578125 358.006835938 192.571289062 342.291992188 279.142578125 c 0
 333.435546875 327.713867188 318.006835938 502.286132812 227.720703125 473.142578125 c 0
 188.864257812 460.571289062 169.720703125 412.857421875 156.006835938 380.571289062 c 0
 140.578125 344.857421875 128.864257812 307.713867188 120.006835938 270.286132812 c 0
 101.720703125 192.571289062 98.2919921875 112.857421875 107.720703125 33.7138671875 c 0
 110.006835938 13.4287109375 74.8642578125 9.7138671875 70.2919921875 28.857421875 c 0
 16.8642578125 248.571289062 -2.564453125 474 13.435546875 698.857421875 c 0
 14.8642578125 721.428710938 53.1494140625 721.713867188 51.435546875 698.857421875 c 0
 40.0068359375 538 46.8642578125 376.857421875 71.435546875 217.713867188 c 1
 76.578125 254.571289062 84.578125 290.857421875 95.720703125 326.571289062 c 0
 115.149414062 388.857421875 147.720703125 499.713867188 231.720703125 510 c 0
 334.006835938 522.571289062 356.006835938 400.571289062 369.720703125 333.428710938 c 1
EndSplineSet
EndChar

StartChar: i
Encoding: 105 105 5
Width: 105
Flags: HW
LayerCount: 2
Fore
SplineSet
30.5830078125 498.857421875 m 0
 30.8681640625 525.428710938 66.5830078125 525.428710938 66.296875 498.857421875 c 0
 64.01171875 339.142578125 62.01171875 179.713867188 59.7255859375 20 c 0
 59.4404296875 -6.5712890625 23.7255859375 -6.5712890625 24.01171875 20 c 0
 26.296875 179.713867188 28.296875 339.142578125 30.5830078125 498.857421875 c 0
91.4404296875 651.713867188 m 2
 92.01171875 651.428710938 l 2
 90.01171875 643.142578125 85.4404296875 635.142578125 78.296875 630.571289062 c 0
 73.154296875 626 66.8681640625 622.571289062 59.4404296875 621.428710938 c 0
 52.296875 620.571289062 46.01171875 620.571289062 39.154296875 622.286132812 c 0
 32.5830078125 624 26.8681640625 627.428710938 21.7255859375 631.713867188 c 0
 12.5830078125 639.142578125 7.7255859375 652 8.01171875 663.713867188 c 0
 8.5830078125 677.142578125 14.5830078125 689.142578125 25.7255859375 696.857421875 c 0
 29.4404296875 699.428710938 33.7255859375 701.428710938 38.296875 702.286132812 c 0
 44.5830078125 703.428710938 50.01171875 703.142578125 56.296875 702.286132812 c 0
 56.8681640625 702 57.7255859375 701.428710938 58.5830078125 701.428710938 c 0
 61.4404296875 702.857421875 64.296875 704 67.154296875 704 c 0
 72.01171875 704 76.01171875 702 79.7255859375 698.857421875 c 0
 88.5830078125 691.428710938 92.8681640625 679.713867188 93.7255859375 668.286132812 c 0
 94.01171875 662.857421875 93.154296875 657.142578125 91.4404296875 651.713867188 c 2
EndSplineSet
EndChar

StartChar: j
Encoding: 106 106 6
Width: 255
Flags: HW
LayerCount: 2
Fore
SplineSet
238.395507812 689.142578125 m 1
 238.110351562 689.142578125 l 1
 242.681640625 681.142578125 245.252929688 671.428710938 244.110351562 662.286132812 c 0
 242.681640625 651.142578125 238.681640625 641.428710938 231.538085938 632.571289062 c 0
 225.538085938 625.428710938 216.395507812 619.713867188 207.538085938 618 c 0
 196.681640625 616 186.681640625 617.428710938 176.681640625 622 c 0
 167.252929688 626.286132812 160.395507812 634.857421875 156.681640625 644.571289062 c 0
 150.110351562 662 158.110351562 684.571289062 174.681640625 693.428710938 c 0
 176.966796875 694.571289062 179.538085938 695.428710938 181.82421875 695.428710938 c 0
 184.966796875 699.142578125 188.395507812 702.857421875 192.966796875 704.857421875 c 0
 200.110351562 708 206.681640625 708.857421875 214.395507812 707.428710938 c 0
 224.681640625 705.713867188 233.538085938 697.713867188 238.395507812 689.142578125 c 1
211.82421875 504.571289062 m 1
 211.538085938 504.857421875 l 1
 236.966796875 324.857421875 248.966796875 141.142578125 239.82421875 -40.857421875 c 0
 236.681640625 -101.428710938 221.538085938 -177.142578125 159.82421875 -196 c 0
 95.2529296875 -216 46.1103515625 -155.142578125 11.5380859375 -105.428710938 c 0
 -2.4619140625 -85.4287109375 28.681640625 -66 42.3955078125 -85.7138671875 c 0
 60.966796875 -112.571289062 81.5380859375 -142.857421875 111.538085938 -155.142578125 c 0
 145.82421875 -169.428710938 176.110351562 -150.571289062 190.966796875 -116 c 0
 214.395507812 -60.857421875 206.395507812 17.4287109375 206.395507812 76.2861328125 c 0
 206.681640625 216.286132812 196.681640625 356 177.252929688 494.286132812 c 0
 173.82421875 518.857421875 208.395507812 529.428710938 211.82421875 504.571289062 c 1
EndSplineSet
EndChar

StartChar: k
Encoding: 107 107 7
Width: 456
Flags: HW
LayerCount: 2
Fore
SplineSet
442.950195312 22.2861328125 m 1
 442.6640625 22.5712890625 l 1
 454.950195312 0.5712890625 411.807617188 -14.5712890625 399.235351562 7.4287109375 c 0
 341.521484375 109.142578125 233.521484375 190.571289062 101.807617188 236 c 1
 100.950195312 164 99.521484375 92 96.9501953125 20.2861328125 c 0
 96.0927734375 -3.4287109375 47.521484375 0.5712890625 48.37890625 24 c 0
 51.2353515625 99.4287109375 52.6640625 175.142578125 53.2353515625 250.571289062 c 0
 43.521484375 253.142578125 34.0927734375 256 24.0927734375 258.286132812 c 0
 4.0927734375 262.857421875 2.37890625 286.571289062 20.9501953125 292 c 0
 32.0927734375 295.142578125 42.9501953125 299.142578125 53.8076171875 302.857421875 c 0
 54.0927734375 434 51.521484375 565.142578125 45.521484375 696.286132812 c 0
 44.6640625 720 92.9501953125 716 94.0927734375 692.571289062 c 0
 99.8076171875 568.857421875 102.37890625 445.142578125 102.37890625 321.713867188 c 1
 202.950195312 364.857421875 285.235351562 428.571289062 337.235351562 507.428710938 c 0
 350.6640625 527.713867188 396.950195312 514.571289062 383.235351562 494 c 0
 322.092773438 400.857421875 224.37890625 325.428710938 102.37890625 278.571289062 c 0
 102.37890625 277.713867188 102.37890625 276.571289062 102.37890625 275.428710938 c 0
 252.950195312 228 378.092773438 136 442.950195312 22.2861328125 c 1
EndSplineSet
EndChar

StartChar: l
Encoding: 108 108 8
Width: 66
Flags: HW
LayerCount: 2
Fore
SplineSet
43.720703125 695.428710938 m 0
 47.4345703125 470.571289062 51.4345703125 245.713867188 55.1494140625 20.857421875 c 0
 55.720703125 -6.857421875 20.0068359375 -6.5712890625 19.4345703125 20.857421875 c 0
 15.720703125 245.713867188 11.720703125 470.571289062 8.0068359375 695.428710938 c 0
 7.4345703125 723.142578125 43.1494140625 722.857421875 43.720703125 695.428710938 c 0
EndSplineSet
EndChar

StartChar: m
Encoding: 109 109 9
Width: 712
Flags: HW
LayerCount: 2
Fore
SplineSet
696.025390625 310 m 1
 696.025390625 310.286132812 l 1
 708.311523438 218.571289062 698.8828125 125.428710938 669.454101562 38 c 0
 661.454101562 14.5712890625 625.168945312 24.5712890625 633.168945312 48.2861328125 c 0
 657.168945312 119.713867188 667.740234375 194 662.59765625 269.142578125 c 0
 658.8828125 325.428710938 649.454101562 414 596.59765625 446.286132812 c 0
 534.311523438 484 457.168945312 406 417.740234375 362.857421875 c 0
 374.311523438 315.142578125 341.168945312 258.571289062 319.168945312 197.142578125 c 0
 312.025390625 176.286132812 283.740234375 180 282.311523438 202.286132812 c 0
 278.311523438 260.857421875 276.59765625 320.286132812 270.311523438 378.571289062 c 0
 268.025390625 398 264.59765625 423.428710938 240.025390625 426 c 0
 226.025390625 427.713867188 211.740234375 418 202.311523438 408.857421875 c 0
 183.168945312 390.286132812 169.168945312 362.857421875 156.311523438 339.142578125 c 0
 103.168945312 241.142578125 74.025390625 131.142578125 70.025390625 19.142578125 c 0
 69.1689453125 -6 33.4541015625 -5.7138671875 32.3115234375 19.142578125 c 0
 24.3115234375 179.428710938 16.025390625 340 8.025390625 500.286132812 c 0
 6.8828125 525.428710938 44.59765625 525.142578125 45.740234375 500.286132812 c 0
 50.8828125 400.857421875 55.740234375 301.428710938 60.8828125 202 c 1
 64.59765625 216 68.59765625 230.286132812 73.4541015625 244 c 0
 95.4541015625 307.428710938 124.8828125 377.428710938 168.59765625 428.286132812 c 0
 203.454101562 468.857421875 270.311523438 482.571289062 297.454101562 425.428710938 c 0
 310.8828125 397.142578125 309.454101562 361.142578125 311.454101562 330.571289062 c 0
 312.59765625 313.428710938 313.740234375 296 314.8828125 278.857421875 c 1
 339.740234375 326.571289062 370.8828125 370.857421875 409.168945312 408.857421875 c 0
 457.740234375 456.857421875 530.59765625 516 602.025390625 486.286132812 c 0
 667.740234375 459.142578125 687.168945312 374.571289062 696.025390625 310 c 1
EndSplineSet
EndChar

StartChar: n
Encoding: 110 110 10
Width: 438
Flags: HW
LayerCount: 2
Fore
SplineSet
350.90234375 450.286132812 m 2
 351.1875 450 l 2
 434.044921875 321.142578125 449.1875 155.142578125 397.758789062 12.5712890625 c 0
 389.758789062 -9.4287109375 353.1875 0 361.1875 22.2861328125 c 0
 390.331054688 102.286132812 397.758789062 188.571289062 381.473632812 272 c 0
 373.473632812 312.857421875 360.331054688 353.142578125 341.758789062 390.571289062 c 0
 325.1875 423.713867188 299.758789062 483.428710938 253.1875 456 c 0
 184.044921875 415.142578125 130.044921875 338.857421875 96.044921875 269.713867188 c 0
 69.7587890625 216.286132812 53.7587890625 158.571289062 48.044921875 100 c 0
 47.4736328125 79.7138671875 46.6162109375 59.142578125 46.044921875 38.857421875 c 0
 45.4736328125 15.4287109375 8.90234375 15.4287109375 8.3310546875 38.857421875 c 0
 7.4736328125 60.2861328125 8.3310546875 81.4287109375 10.3310546875 102.286132812 c 0
 14.90234375 235.142578125 19.1875 368.286132812 23.7587890625 501.142578125 c 0
 24.3310546875 524.571289062 62.3310546875 524.571289062 61.4736328125 501.142578125 c 2
 53.4736328125 266.857421875 l 1
 55.1875 270.571289062 56.6162109375 274.286132812 58.3310546875 278 c 0
 89.1875 344.286132812 134.616210938 405.142578125 190.331054688 454 c 0
 214.90234375 475.428710938 244.331054688 501.713867188 279.758789062 501.142578125 c 0
 312.616210938 500.571289062 334.90234375 475.142578125 350.90234375 450.286132812 c 2
EndSplineSet
EndChar

StartChar: o
Encoding: 111 111 11
Width: 477
Flags: HW
LayerCount: 2
Fore
SplineSet
444.203125 426.857421875 m 2
 444.489257812 426.857421875 l 2
 487.631835938 335.142578125 460.775390625 220.571289062 406.775390625 135.713867188 c 0
 358.203125 59.7138671875 255.346679688 -39.4287109375 139.060546875 16.5712890625 c 0
 34.775390625 66.857421875 -4.3681640625 187.142578125 11.3466796875 278.571289062 c 0
 21.3466796875 337.713867188 54.4892578125 392.286132812 103.631835938 435.713867188 c 1
 85.91796875 438.286132812 75.6318359375 459.713867188 95.6318359375 468.286132812 c 0
 159.91796875 496 228.775390625 524.286132812 303.91796875 517.713867188 c 0
 371.060546875 511.713867188 420.489257812 477.142578125 444.203125 426.857421875 c 2
385.91796875 185.428710938 m 1
 385.91796875 185.142578125 l 1
 420.775390625 256.571289062 439.346679688 353.713867188 396.489257812 425.713867188 c 0
 362.775390625 482.571289062 300.489257812 488.571289062 237.631835938 476.571289062 c 0
 235.91796875 473.428710938 233.346679688 470.571289062 228.489257812 468.571289062 c 0
 131.631835938 427.713867188 61.91796875 349.428710938 52.775390625 260.571289062 c 0
 45.060546875 186.286132812 78.4892578125 80.2861328125 168.489257812 44 c 0
 270.775390625 2.5712890625 355.91796875 124 385.91796875 185.428710938 c 1
EndSplineSet
EndChar

StartChar: p
Encoding: 112 112 12
Width: 456
Flags: HW
LayerCount: 2
Fore
SplineSet
418.171875 335.713867188 m 0
 439.028320312 287.713867188 456.45703125 234.286132812 434.45703125 184 c 0
 415.599609375 141.428710938 371.885742188 115.713867188 321.885742188 107.428710938 c 0
 241.599609375 94 158.45703125 114.857421875 89.599609375 153.713867188 c 1
 93.314453125 41.7138671875 96.7431640625 -70 100.171875 -181.713867188 c 0
 101.028320312 -206.857421875 58.171875 -206.286132812 56.45703125 -181.713867188 c 0
 50.7431640625 -100.857421875 45.0283203125 -19.7138671875 39.314453125 61.142578125 c 0
 36.171875 106 31.8857421875 150.857421875 29.314453125 196 c 0
 24.171875 200.286132812 18.7431640625 204.571289062 13.8857421875 209.142578125 c 0
 0.171875 222.571289062 12.7431640625 240.286132812 27.8857421875 242.286132812 c 0
 27.8857421875 252.286132812 27.8857421875 262.286132812 27.8857421875 272 c 0
 28.45703125 299.142578125 32.171875 328.286132812 39.8857421875 356.571289062 c 0
 38.171875 404.286132812 36.7431640625 452.286132812 35.314453125 500 c 0
 34.45703125 524.857421875 78.171875 524.857421875 79.0283203125 500 c 0
 79.599609375 481.142578125 80.171875 462 80.7431640625 443.142578125 c 1
 105.885742188 476 141.028320312 501.713867188 189.599609375 511.713867188 c 0
 316.743164062 538 381.314453125 421.142578125 418.171875 335.713867188 c 0
382.171875 179.428710938 m 1
 382.171875 179.142578125 l 1
 423.885742188 228.857421875 389.314453125 296.857421875 366.45703125 346.857421875 c 0
 342.45703125 398.857421875 308.45703125 465.428710938 237.028320312 474.857421875 c 0
 166.45703125 484.286132812 110.743164062 427.713867188 89.599609375 374.571289062 c 0
 87.0283203125 368.571289062 85.0283203125 362.571289062 83.314453125 356.571289062 c 0
 85.0283203125 304.857421875 86.45703125 253.428710938 88.171875 201.713867188 c 0
 123.314453125 177.713867188 163.028320312 159.713867188 207.028320312 150 c 0
 262.743164062 137.713867188 343.885742188 133.428710938 382.171875 179.428710938 c 1
EndSplineSet
EndChar

StartChar: q
Encoding: 113 113 13
Width: 372
Flags: HW
LayerCount: 2
Fore
SplineSet
343.467773438 -28.857421875 m 2
 344.0390625 -28.857421875 l 2
 367.181640625 -28.2861328125 366.896484375 -66.5712890625 344.0390625 -67.142578125 c 0
 256.0390625 -68.857421875 173.467773438 -114 121.181640625 -190.286132812 c 0
 107.752929688 -209.713867188 79.181640625 -192.857421875 90.3251953125 -170.857421875 c 0
 175.752929688 -2.857421875 263.467773438 172.286132812 289.181640625 362.286132812 c 1
 269.467773438 321.142578125 244.610351562 282.857421875 214.610351562 249.142578125 c 0
 170.610351562 199.142578125 78.3251953125 131.142578125 24.6103515625 208.286132812 c 0
 -28.818359375 284.857421875 59.7529296875 375.713867188 105.752929688 426.286132812 c 0
 158.325195312 484.286132812 231.181640625 532 307.467773438 515.142578125 c 0
 314.0390625 517.142578125 321.752929688 514.857421875 326.896484375 509.428710938 c 0
 328.610351562 508.857421875 330.0390625 508.286132812 331.752929688 507.713867188 c 0
 349.181640625 500.571289062 345.752929688 474.286132812 331.752929688 470.286132812 c 0
 331.467773438 271.428710938 258.0390625 88 172.896484375 -86 c 1
 222.896484375 -50.2861328125 281.467773438 -30 343.467773438 -28.857421875 c 2
64.3251953125 221.428710938 m 2
 64.6103515625 221.142578125 l 2
 123.181640625 178.857421875 198.610351562 281.142578125 227.467773438 325.713867188 c 0
 257.467773438 372.286132812 278.325195312 423.713867188 291.181640625 478.286132812 c 1
 233.467773438 485.713867188 179.752929688 450.571289062 138.325195312 407.142578125 c 0
 105.181640625 372.286132812 -0.818359375 268.286132812 64.3251953125 221.428710938 c 2
EndSplineSet
EndChar

StartChar: r
Encoding: 114 114 14
Width: 336
Flags: HW
LayerCount: 2
Fore
SplineSet
303.186523438 484 m 2
 303.471679688 483.713867188 l 2
 324.900390625 492.857421875 334.04296875 455.428710938 312.900390625 446.571289062 c 0
 248.04296875 419.428710938 191.7578125 370.857421875 150.900390625 310.571289062 c 0
 152.329101562 302.857421875 153.7578125 294.857421875 154.900390625 287.142578125 c 0
 166.615234375 204.857421875 157.7578125 120 127.471679688 43.142578125 c 0
 117.186523438 16.857421875 89.1865234375 -18.5712890625 61.7578125 8 c 0
 38.3291015625 30.5712890625 45.4716796875 87.142578125 47.7578125 117.142578125 c 0
 53.4716796875 191.142578125 76.615234375 259.713867188 112.900390625 318.857421875 c 0
 98.615234375 383.713867188 69.4716796875 451.428710938 16.900390625 481.428710938 c 0
 -3.384765625 493.142578125 14.615234375 526.571289062 34.900390625 514.857421875 c 0
 88.3291015625 484.286132812 121.186523438 421.428710938 139.7578125 357.428710938 c 1
 182.615234375 412.857421875 238.615234375 456.857421875 303.186523438 484 c 2
117.471679688 138.286132812 m 1
 117.7578125 138 l 1
 125.186523438 178.571289062 126.329101562 220.571289062 122.329101562 261.428710938 c 1
 90.615234375 196.857421875 75.4716796875 123.142578125 83.4716796875 48.5712890625 c 0
 84.3291015625 39.7138671875 82.900390625 33.142578125 90.04296875 46.857421875 c 0
 94.900390625 56.5712890625 98.615234375 67.142578125 102.04296875 77.7138671875 c 0
 108.615234375 97.4287109375 113.7578125 117.713867188 117.471679688 138.286132812 c 1
EndSplineSet
EndChar

StartChar: s
Encoding: 115 115 15
Width: 438
Flags: HW
LayerCount: 2
Fore
SplineSet
155.782226562 439.428710938 m 1
 156.067382812 439.713867188 l 1
 139.49609375 428 117.782226562 412 108.067382812 392.286132812 c 0
 96.638671875 368.857421875 132.067382812 366.571289062 144.924804688 364.571289062 c 0
 192.638671875 356.857421875 240.638671875 351.142578125 287.782226562 341.142578125 c 0
 322.067382812 334 358.067382812 321.428710938 383.782226562 293.142578125 c 0
 410.924804688 263.142578125 419.49609375 219.428710938 410.067382812 178.286132812 c 0
 390.353515625 91.4287109375 312.067382812 33.4287109375 239.2109375 13.142578125 c 0
 163.782226562 -8 82.0673828125 4.857421875 16.353515625 52 c 0
 -3.0751953125 65.7138671875 14.9248046875 100.857421875 34.353515625 86.857421875 c 0
 109.49609375 32.5712890625 208.924804688 28.857421875 287.49609375 76.857421875 c 0
 323.49609375 98.5712890625 357.49609375 131.713867188 372.067382812 176.286132812 c 0
 386.924804688 221.428710938 370.924804688 262 333.49609375 282.857421875 c 0
 297.49609375 302.571289062 254.638671875 305.713867188 215.49609375 312 c 0
 188.638671875 316.286132812 161.782226562 320.571289062 134.924804688 324.857421875 c 0
 118.638671875 327.428710938 101.49609375 330.571289062 87.7822265625 342 c 0
 50.638671875 372.571289062 77.2109375 419.428710938 103.49609375 445.428710938 c 0
 131.782226562 473.428710938 165.2109375 494 200.924804688 506.286132812 c 0
 273.2109375 531.142578125 353.49609375 522.286132812 418.924804688 478.571289062 c 0
 438.638671875 465.428710938 420.638671875 430.571289062 400.924804688 443.713867188 c 0
 326.353515625 493.713867188 229.49609375 490.857421875 155.782226562 439.428710938 c 1
EndSplineSet
EndChar

StartChar: t
Encoding: 116 116 16
Width: 337
Flags: HW
LayerCount: 2
Fore
SplineSet
293.250976562 158.857421875 m 1
 293.250976562 158.571289062 l 1
 303.536132812 182.286132812 334.393554688 161.428710938 324.107421875 137.713867188 c 0
 296.96484375 74.857421875 258.393554688 0.5712890625 189.250976562 0 c 0
 128.96484375 -0.5712890625 90.3935546875 64.857421875 79.822265625 127.142578125 c 0
 64.96484375 215.428710938 83.5361328125 312.571289062 91.2509765625 401.142578125 c 0
 94.107421875 435.428710938 97.2509765625 469.713867188 100.107421875 504 c 1
 74.96484375 504 50.107421875 503.428710938 25.2509765625 503.428710938 c 0
 2.107421875 503.428710938 2.3935546875 544.857421875 25.2509765625 544.857421875 c 0
 51.2509765625 545.142578125 77.5361328125 545.713867188 103.536132812 545.713867188 c 0
 107.822265625 595.713867188 112.393554688 646 116.6796875 696.286132812 c 0
 118.96484375 722.571289062 154.6796875 722.857421875 152.393554688 696.286132812 c 0
 147.822265625 646.286132812 143.250976562 596 138.6796875 546 c 1
 180.96484375 546.286132812 223.536132812 546.857421875 265.822265625 547.142578125 c 0
 288.96484375 547.142578125 288.6796875 505.713867188 265.822265625 505.713867188 c 0
 222.107421875 505.428710938 178.6796875 504.857421875 134.96484375 504.571289062 c 0
 126.96484375 415.713867188 118.96484375 326.857421875 112.6796875 238 c 0
 108.393554688 176.857421875 105.536132812 82.2861328125 161.822265625 49.142578125 c 0
 225.822265625 11.4287109375 270.393554688 105.713867188 293.250976562 158.857421875 c 1
EndSplineSet
EndChar

StartChar: u
Encoding: 117 117 17
Width: 492
Flags: HW
LayerCount: 2
Fore
SplineSet
454.9609375 53.142578125 m 1
 454.67578125 52.5712890625 l 1
 473.532226562 68 491.247070312 32 472.67578125 16.857421875 c 0
 441.247070312 -8.857421875 398.389648438 -4 367.247070312 20.2861328125 c 0
 332.103515625 47.7138671875 315.532226562 96 309.247070312 143.142578125 c 0
 302.67578125 191.428710938 303.247070312 240 307.247070312 288.571289062 c 1
 300.103515625 267.713867188 293.247070312 246.857421875 286.103515625 226 c 0
 273.247070312 188.286132812 260.9609375 150.286132812 247.532226562 112.857421875 c 0
 238.103515625 86.5712890625 226.67578125 59.4287109375 208.389648438 39.7138671875 c 0
 166.9609375 -4.857421875 105.532226562 8.857421875 70.103515625 55.7138671875 c 0
 30.103515625 108.571289062 17.818359375 188.571289062 11.2470703125 256 c 0
 3.818359375 332.857421875 9.2470703125 410.857421875 26.3896484375 485.713867188 c 0
 32.3896484375 511.713867188 66.9609375 500.571289062 60.9609375 474.857421875 c 0
 42.3896484375 392.571289062 38.3896484375 306.286132812 51.5322265625 222.286132812 c 0
 57.5322265625 183.428710938 65.818359375 142 82.67578125 107.142578125 c 0
 98.3896484375 75.142578125 130.389648438 42.5712890625 164.67578125 56 c 0
 192.389648438 66.857421875 206.103515625 104.286132812 216.389648438 133.142578125 c 0
 230.67578125 173.428710938 244.103515625 214.571289062 257.818359375 255.142578125 c 2
 342.103515625 504.286132812 l 2
 350.389648438 528.857421875 382.103515625 520 376.67578125 493.428710938 c 0
 357.247070312 396.857421875 337.818359375 299.428710938 340.67578125 199.713867188 c 0
 341.818359375 158 345.818359375 111.142578125 368.103515625 76.2861328125 c 0
 388.103515625 45.142578125 426.103515625 29.4287109375 454.9609375 53.142578125 c 1
EndSplineSet
EndChar

StartChar: v
Encoding: 118 118 18
Width: 478
Flags: HW
LayerCount: 2
Fore
SplineSet
433.444335938 510.571289062 m 1
 433.444335938 510.286132812 l 1
 445.158203125 530.571289062 476.015625 512 464.301757812 492 c 0
 369.444335938 330.857421875 274.873046875 170 180.015625 8.857421875 c 0
 172.873046875 -3.142578125 156.301757812 -2.857421875 149.158203125 8.857421875 c 0
 62.015625 152.857421875 13.7294921875 317.713867188 8.015625 486.571289062 c 0
 7.158203125 510 42.873046875 510 43.7294921875 486.571289062 c 0
 48.873046875 334.571289062 90.873046875 186.286132812 164.873046875 54.2861328125 c 1
 254.301757812 206.286132812 344.015625 358.571289062 433.444335938 510.571289062 c 1
EndSplineSet
EndChar

StartChar: w
Encoding: 119 119 19
Width: 717
Flags: HW
LayerCount: 2
Fore
SplineSet
666.873046875 469.428710938 m 1
 667.159179688 468.571289062 l 1
 673.73046875 494.286132812 711.444335938 483.428710938 704.873046875 457.428710938 c 0
 684.015625 373.713867188 658.873046875 291.428710938 628.587890625 210.857421875 c 0
 615.159179688 175.142578125 600.587890625 139.713867188 585.444335938 104.571289062 c 0
 572.015625 73.4287109375 558.587890625 40.5712890625 532.587890625 18.857421875 c 0
 485.444335938 -20.5712890625 433.73046875 4 408.301757812 55.7138671875 c 0
 380.587890625 112.286132812 360.587890625 174.571289062 344.301757812 236.571289062 c 1
 308.015625 175.142578125 272.301757812 112.571289062 232.015625 54.5712890625 c 0
 205.73046875 16.5712890625 156.015625 -16.2861328125 119.444335938 28.2861328125 c 0
 102.015625 49.4287109375 97.4443359375 79.4287109375 91.73046875 105.713867188 c 0
 82.587890625 148.571289062 73.1591796875 191.713867188 64.015625 234.571289062 c 0
 45.4443359375 320.571289062 27.1591796875 406.286132812 8.587890625 492.286132812 c 0
 2.873046875 518.571289062 40.587890625 529.428710938 46.3017578125 503.428710938 c 0
 74.587890625 372.286132812 102.301757812 241.142578125 130.873046875 110.286132812 c 0
 135.73046875 88.5712890625 141.73046875 36.5712890625 174.873046875 52.2861328125 c 0
 198.873046875 63.7138671875 214.015625 100.857421875 227.73046875 123.428710938 c 0
 263.444335938 181.713867188 298.873046875 240.286132812 334.587890625 298.571289062 c 0
 343.444335938 313.142578125 366.015625 311.713867188 370.301757812 293.713867188 c 0
 385.73046875 228.571289062 405.444335938 164.571289062 430.873046875 102.857421875 c 0
 441.159179688 77.7138671875 455.444335938 35.142578125 488.301757812 41.7138671875 c 0
 517.444335938 47.4287109375 532.301757812 83.4287109375 543.73046875 108.571289062 c 0
 596.015625 224 636.015625 345.713867188 666.873046875 469.428710938 c 1
EndSplineSet
EndChar

StartChar: x
Encoding: 120 120 20
Width: 442
Flags: HW
LayerCount: 2
Fore
SplineSet
392.52734375 498.571289062 m 1
 392.241210938 498.286132812 l 1
 406.241210938 518.571289062 435.384765625 493.142578125 421.098632812 472.857421875 c 0
 374.813476562 407.428710938 325.956054688 344 276.241210938 281.713867188 c 0
 323.098632812 200.571289062 373.098632812 122 426.813476562 46.2861328125 c 0
 441.669921875 25.142578125 413.956054688 0.5712890625 399.098632812 21.4287109375 c 0
 346.813476562 95.4287109375 297.956054688 172 251.956054688 251.142578125 c 1
 183.098632812 167.142578125 111.384765625 86.2861328125 36.52734375 9.142578125 c 0
 19.669921875 -8.2861328125 -2.9013671875 24.857421875 13.9560546875 42 c 0
 89.669921875 120 162.241210938 202.286132812 231.669921875 287.713867188 c 0
 195.098632812 352.857421875 159.956054688 419.142578125 127.669921875 487.428710938 c 0
 116.241210938 511.142578125 149.098632812 526.286132812 160.241210938 502.857421875 c 0
 190.241210938 440 222.52734375 378.571289062 256.241210938 318.286132812 c 1
 303.098632812 376.857421875 348.813476562 436.571289062 392.52734375 498.571289062 c 1
EndSplineSet
EndChar

StartChar: y
Encoding: 121 121 21
Width: 435
Flags: HW
LayerCount: 2
Fore
SplineSet
385.876953125 487.428710938 m 2
 386.44921875 487.428710938 l 2
 397.020507812 503.428710938 424.44921875 498.857421875 423.876953125 476.857421875 c 0
 420.163085938 364.857421875 416.734375 252.857421875 413.020507812 140.857421875 c 0
 410.163085938 54.5712890625 415.020507812 -44.2861328125 355.020507812 -112.286132812 c 0
 303.591796875 -170.571289062 211.020507812 -202.286132812 136.44921875 -200 c 0
 64.44921875 -197.713867188 -9.265625 -138.857421875 11.591796875 -56.5712890625 c 0
 18.1630859375 -30.5712890625 57.0205078125 -41.7138671875 50.44921875 -67.7138671875 c 0
 39.591796875 -110.286132812 73.591796875 -145.428710938 110.734375 -154.857421875 c 0
 146.163085938 -164 184.44921875 -155.428710938 218.734375 -145.142578125 c 0
 287.591796875 -124.571289062 344.44921875 -84.5712890625 361.591796875 -8.5712890625 c 0
 379.020507812 68 373.020507812 153.142578125 375.591796875 231.142578125 c 0
 377.020507812 278.286132812 378.734375 325.428710938 380.163085938 372.571289062 c 1
 369.591796875 342 358.734375 311.428710938 340.163085938 284.571289062 c 0
 312.44921875 244.571289062 268.163085938 211.428710938 218.734375 220.286132812 c 0
 169.305664062 229.142578125 135.591796875 276.571289062 127.020507812 325.713867188 c 0
 115.591796875 390.571289062 145.020507812 452.571289062 172.734375 508.571289062 c 0
 184.734375 532.571289062 219.305664062 511.428710938 207.591796875 487.428710938 c 0
 184.44921875 440.857421875 156.163085938 386.571289062 166.734375 332.286132812 c 0
 174.734375 289.713867188 209.020507812 250 253.591796875 263.713867188 c 0
 337.876953125 289.428710938 342.734375 422 385.876953125 487.428710938 c 2
EndSplineSet
EndChar

StartChar: z
Encoding: 122 122 22
Width: 632
Flags: HW
LayerCount: 2
Fore
SplineSet
604.016601562 54.857421875 m 1
 604.016601562 55.142578125 l 2
 626.874023438 57.142578125 626.874023438 15.7138671875 604.016601562 13.7138671875 c 0
 411.4453125 -4.2861328125 218.016601562 -4 25.4453125 14.2861328125 c 0
 6.8740234375 16 2.0166015625 40.5712890625 16.302734375 52.857421875 c 0
 128.874023438 148.571289062 232.302734375 258.286132812 324.302734375 380 c 0
 336.587890625 396.286132812 348.874023438 412.571289062 360.587890625 429.428710938 c 0
 365.4453125 436.286132812 372.302734375 443.428710938 375.731445312 451.428710938 c 0
 382.874023438 467.142578125 382.587890625 470.571289062 368.587890625 474.857421875 c 0
 353.159179688 479.713867188 332.016601562 476 316.016601562 475.713867188 c 0
 298.302734375 475.428710938 280.874023438 474.286132812 263.4453125 472.571289062 c 0
 191.731445312 465.428710938 121.159179688 445.713867188 53.4453125 416.857421875 c 0
 31.7314453125 407.713867188 22.587890625 447.713867188 44.0166015625 456.857421875 c 0
 126.302734375 492 212.587890625 512.571289062 300.302734375 516.571289062 c 0
 329.159179688 517.713867188 378.302734375 526.857421875 403.4453125 504.571289062 c 0
 428.874023438 481.713867188 416.016601562 445.142578125 400.016601562 420.571289062 c 0
 309.159179688 281.142578125 194.587890625 158.571289062 74.587890625 52 c 1
 250.874023438 38 427.731445312 38.5712890625 604.016601562 54.857421875 c 1
EndSplineSet
EndChar

StartChar: braceleft
Encoding: 123 123 23
Width: 410
Flags: HW
LayerCount: 2
Fore
SplineSet
365.395507812 -88.5712890625 m 2
 365.680664062 -88.5712890625 l 2
 371.395507812 -66 405.966796875 -75.7138671875 400.251953125 -98.2861328125 c 0
 378.251953125 -188.286132812 273.395507812 -231.713867188 198.538085938 -173.428710938 c 0
 123.109375 -114.857421875 139.109375 -9.4287109375 153.966796875 72.857421875 c 0
 163.966796875 127.142578125 173.966796875 204.571289062 123.395507812 242 c 1
 121.680664062 235.142578125 119.680664062 228.571289062 117.109375 222.286132812 c 0
 104.251953125 190.286132812 68.82421875 165.142578125 34.82421875 182.857421875 c 0
 3.109375 199.428710938 1.966796875 242.857421875 23.966796875 268 c 0
 41.3955078125 287.713867188 66.82421875 294.857421875 91.6806640625 292.571289062 c 1
 91.3955078125 307.713867188 89.966796875 323.142578125 88.82421875 337.428710938 c 0
 79.966796875 437.142578125 50.5380859375 545.713867188 104.82421875 638 c 0
 144.82421875 705.713867188 230.251953125 741.428710938 299.680664062 696.571289062 c 0
 319.109375 684 301.109375 652.571289062 281.680664062 665.142578125 c 0
 215.395507812 707.713867188 144.538085938 654.571289062 121.395507812 589.142578125 c 0
 99.109375 526.571289062 109.395507812 458.286132812 117.680664062 394.286132812 c 0
 121.966796875 359.713867188 129.109375 319.713867188 127.966796875 281.713867188 c 0
 223.109375 234 194.538085938 109.428710938 181.109375 24.5712890625 c 0
 171.966796875 -33.142578125 169.680664062 -111.428710938 224.251953125 -148.286132812 c 0
 279.966796875 -186 349.680664062 -151.713867188 365.395507812 -88.5712890625 c 2
66.5380859375 238 m 1
 66.251953125 238.286132812 l 1
 84.5380859375 228.286132812 82.5380859375 230 86.82421875 247.713867188 c 0
 87.6806640625 250.571289062 87.6806640625 253.713867188 88.251953125 256.571289062 c 1
 81.6806640625 257.142578125 74.82421875 257.142578125 68.251953125 255.142578125 c 0
 51.109375 249.713867188 47.966796875 248 66.5380859375 238 c 1
EndSplineSet
EndChar

StartChar: braceright
Encoding: 125 125 24
Width: 320
Flags: HW
LayerCount: 2
Fore
SplineSet
302.553710938 400.286132812 m 2
 302.838867188 400.286132812 l 2
 319.696289062 360.286132812 308.838867188 327.428710938 286.838867188 308 c 0
 260.553710938 191.713867188 234.838867188 74.857421875 205.696289062 -40.5712890625 c 0
 183.411132812 -129.428710938 118.553710938 -236 18.267578125 -187.428710938 c 0
 -2.5888671875 -177.142578125 15.4111328125 -144.571289062 36.267578125 -154.571289062 c 0
 92.8388671875 -182 139.696289062 -126 158.267578125 -75.4287109375 c 0
 174.553710938 -30.857421875 182.553710938 18 193.411132812 64.2861328125 c 0
 210.838867188 139.428710938 228.267578125 214.857421875 245.696289062 290 c 1
 216.553710938 286.857421875 184.838867188 301.428710938 167.982421875 341.428710938 c 0
 144.553710938 396.571289062 157.411132812 471.142578125 158.553710938 529.713867188 c 0
 159.125 564.286132812 166.553710938 609.142578125 155.125 642.286132812 c 0
 137.696289062 692.571289062 79.125 697.142578125 51.982421875 654.286132812 c 0
 39.125 634 8.267578125 653.142578125 21.125 673.428710938 c 0
 72.8388671875 754.857421875 182.553710938 724.286132812 193.982421875 628 c 0
 201.125 568.857421875 193.696289062 505.428710938 192.553710938 446 c 0
 191.696289062 414.857421875 188.267578125 379.428710938 202.838867188 351.142578125 c 0
 214.267578125 328.857421875 237.411132812 322.857421875 254.553710938 329.428710938 c 0
 259.696289062 351.428710938 264.838867188 373.713867188 269.982421875 395.713867188 c 0
 273.411132812 410.571289062 295.982421875 415.428710938 302.553710938 400.286132812 c 2
EndSplineSet
EndChar

StartChar: asciitilde
Encoding: 126 126 25
Width: 532
Flags: HW
LayerCount: 2
Fore
SplineSet
490.131835938 407.713867188 m 0
 506.989257812 427.428710938 532.703125 396.286132812 515.846679688 376.571289062 c 0
 456.703125 307.428710938 370.703125 277.428710938 289.846679688 299.713867188 c 0
 242.703125 312.857421875 202.989257812 347.713867188 156.989257812 364.857421875 c 0
 114.989257812 380.571289062 54.9892578125 376 46.41796875 311.713867188 c 0
 42.703125 283.713867188 7.560546875 295.713867188 11.2744140625 323.428710938 c 0
 17.560546875 370.571289062 51.2744140625 405.142578125 89.2744140625 414.571289062 c 0
 136.131835938 426.286132812 182.131835938 402.857421875 223.560546875 378.857421875 c 0
 269.560546875 352 313.560546875 331.142578125 365.846679688 337.713867188 c 0
 412.703125 343.428710938 456.41796875 368.571289062 490.131835938 407.713867188 c 0
EndSplineSet
EndChar

StartChar: multiply
Encoding: 215 215 26
Width: 394
Flags: HW
LayerCount: 2
Fore
SplineSet
379.029296875 196.571289062 m 1
 379.029296875 196.857421875 l 1
 395.029296875 179.428710938 369.600585938 152.571289062 353.88671875 170.286132812 c 0
 302.171875 228 251.029296875 286.286132812 199.029296875 343.713867188 c 1
 147.314453125 291.428710938 95.6005859375 239.142578125 43.88671875 186.857421875 c 0
 27.314453125 170 2.171875 196.571289062 18.7431640625 213.428710938 c 0
 70.7431640625 265.713867188 122.458007812 318.286132812 174.458007812 370.571289062 c 0
 126.171875 423.142578125 75.88671875 473.713867188 18.171875 514.286132812 c 0
 -0.970703125 527.713867188 17.029296875 560.286132812 36.171875 546.857421875 c 0
 96.7431640625 504.286132812 149.600585938 451.713867188 200.171875 396.571289062 c 1
 248.171875 445.428710938 296.458007812 494 344.458007812 542.571289062 c 0
 361.029296875 559.428710938 386.171875 532.857421875 369.600585938 516 c 2
 224.743164062 369.428710938 l 2
 276.458007812 312 327.600585938 254.286132812 379.029296875 196.571289062 c 1
EndSplineSet
EndChar

StartChar: divide
Encoding: 247 247 27
Width: 493
Flags: HW
LayerCount: 2
Fore
SplineSet
464.178710938 355.428710938 m 0
 489.036132812 354 489.322265625 318.286132812 464.178710938 319.713867188 c 0
 319.036132812 327.428710938 173.893554688 335.142578125 28.7509765625 342.857421875 c 0
 3.8935546875 344.286132812 3.607421875 380 28.7509765625 378.571289062 c 0
 173.893554688 370.857421875 319.036132812 363.142578125 464.178710938 355.428710938 c 0
283.036132812 209.713867188 m 2
 282.46484375 209.428710938 l 2
 283.322265625 204.286132812 283.322265625 200.286132812 282.46484375 195.142578125 c 0
 282.178710938 192.286132812 280.750976562 189.142578125 279.322265625 186.571289062 c 0
 277.607421875 183.713867188 275.607421875 181.142578125 273.322265625 178.857421875 c 0
 271.322265625 176.571289062 268.750976562 174.571289062 265.893554688 173.142578125 c 0
 258.750976562 169.142578125 251.036132812 168 243.036132812 169.713867188 c 0
 237.607421875 170.857421875 231.607421875 174.571289062 228.178710938 178.857421875 c 0
 225.036132812 182.857421875 223.607421875 185.428710938 221.607421875 190.286132812 c 0
 220.46484375 193.142578125 220.178710938 196 219.893554688 198.857421875 c 0
 219.893554688 199.142578125 219.893554688 199.713867188 219.893554688 199.713867188 c 2
 218.178710938 200.571289062 216.750976562 201.713867188 215.322265625 202.857421875 c 0
 212.178710938 205.713867188 210.178710938 211.142578125 210.178710938 215.428710938 c 0
 210.178710938 219.428710938 211.893554688 225.428710938 215.322265625 228 c 0
 221.322265625 232.571289062 227.607421875 236.571289062 235.036132812 238.286132812 c 0
 242.178710938 240 250.178710938 240.286132812 257.322265625 237.713867188 c 0
 263.607421875 235.713867188 269.607421875 232.286132812 273.893554688 227.142578125 c 0
 278.178710938 222 281.893554688 216.286132812 283.036132812 209.713867188 c 2
276.178710938 509.713867188 m 1
 276.46484375 510 l 1
 276.46484375 506.857421875 276.750976562 504 276.46484375 501.142578125 c 0
 276.178710938 496.857421875 275.607421875 492.286132812 273.893554688 488.286132812 c 0
 271.893554688 482.571289062 269.607421875 478.286132812 265.607421875 473.713867188 c 0
 263.036132812 470.571289062 259.607421875 468 256.178710938 466 c 0
 252.46484375 464 248.750976562 462.571289062 244.750976562 461.713867188 c 0
 235.322265625 460 225.893554688 460.857421875 217.607421875 465.713867188 c 0
 209.322265625 470.857421875 203.893554688 478.857421875 202.46484375 488.571289062 c 0
 201.607421875 496.286132812 202.750976562 504.286132812 207.036132812 511.142578125 c 0
 209.607421875 515.428710938 212.750976562 518.571289062 217.036132812 521.428710938 c 0
 217.607421875 521.713867188 217.893554688 522 218.46484375 522 c 1
 218.46484375 522.286132812 218.46484375 522.286132812 218.46484375 522.286132812 c 2
 218.750976562 530.571289062 223.322265625 538 230.46484375 542.286132812 c 0
 236.750976562 546 243.893554688 546.571289062 250.750976562 545.142578125 c 0
 255.893554688 544.286132812 261.036132812 541.142578125 264.750976562 537.428710938 c 0
 269.036132812 533.142578125 271.322265625 528.286132812 273.607421875 522.857421875 c 0
 275.036132812 518.571289062 275.607421875 514 276.178710938 509.713867188 c 1
EndSplineSet
EndChar

StartChar: exclam
Encoding: 33 33 28
Width: 106
Flags: HW
LayerCount: 2
Fore
SplineSet
59.412109375 703.713867188 m 0
 66.5556640625 725.713867188 101.126953125 716.286132812 93.984375 694.286132812 c 0
 41.412109375 533.428710938 33.412109375 361.713867188 71.126953125 196.857421875 c 0
 75.984375 174.571289062 41.6982421875 165.142578125 36.5556640625 187.428710938 c 0
 -2.587890625 358.286132812 5.126953125 536.857421875 59.412109375 703.713867188 c 0
86.5556640625 65.7138671875 m 1
 86.8408203125 66 l 1
 93.984375 55.142578125 99.6982421875 41.142578125 95.412109375 28 c 0
 90.26953125 13.142578125 74.26953125 0.5712890625 57.984375 6.2861328125 c 0
 57.6982421875 6.5712890625 57.412109375 6.5712890625 57.412109375 6.5712890625 c 2
 56.8408203125 6.2861328125 56.26953125 5.7138671875 55.412109375 5.7138671875 c 0
 49.412109375 4 42.5556640625 4 36.5556640625 5.7138671875 c 0
 28.8408203125 8 22.8408203125 12.857421875 18.26953125 19.4287109375 c 0
 11.984375 28.5712890625 11.126953125 40.5712890625 11.126953125 51.142578125 c 0
 11.126953125 52.857421875 11.126953125 54.857421875 11.126953125 56.857421875 c 0
 10.5556640625 57.4287109375 9.984375 58.2861328125 9.6982421875 59.142578125 c 0
 8.26953125 63.4287109375 9.126953125 69.142578125 11.412109375 72.857421875 c 0
 12.5556640625 74.857421875 14.5556640625 76.857421875 16.5556640625 78.2861328125 c 0
 16.8408203125 78.857421875 17.126953125 79.7138671875 17.6982421875 80.5712890625 c 0
 22.26953125 87.142578125 28.5556640625 92.2861328125 36.26953125 94.2861328125 c 0
 44.8408203125 96.2861328125 53.126953125 94.857421875 61.126953125 91.4287109375 c 0
 72.5556640625 86.2861328125 79.984375 75.7138671875 86.5556640625 65.7138671875 c 1
EndSplineSet
EndChar

StartChar: quotedbl
Encoding: 34 34 29
Width: 243
Flags: HW
LayerCount: 2
Fore
SplineSet
62.95703125 703.142578125 m 1
 62.95703125 703.428710938 l 1
 80.099609375 627.713867188 74.671875 548 45.5283203125 476 c 0
 41.814453125 466.857421875 33.814453125 460.571289062 23.5283203125 463.428710938 c 0
 14.95703125 465.713867188 7.2431640625 476.571289062 10.95703125 485.428710938 c 0
 37.5283203125 551.428710938 44.099609375 624 28.3857421875 693.713867188 c 0
 23.5283203125 716.286132812 57.814453125 725.713867188 62.95703125 703.142578125 c 1
227.814453125 695.713867188 m 0
 222.95703125 625.713867188 224.385742188 555.428710938 232.385742188 486 c 0
 233.814453125 474.857421875 223.243164062 465.428710938 214.671875 465.428710938 c 0
 204.385742188 465.428710938 198.099609375 475.142578125 196.95703125 486 c 0
 189.243164062 555.713867188 187.528320312 625.713867188 192.385742188 695.713867188 c 0
 192.95703125 706.857421875 199.814453125 716.286132812 210.099609375 716.286132812 c 0
 218.95703125 716.286132812 228.671875 706.857421875 227.814453125 695.713867188 c 0
EndSplineSet
EndChar

StartChar: numbersign
Encoding: 35 35 30
Width: 565
Flags: HW
LayerCount: 2
Fore
SplineSet
541.75 254.857421875 m 2
 542.036132812 255.142578125 l 2
 560.036132812 253.713867188 560.321289062 218.857421875 542.036132812 220.286132812 c 0
 476.321289062 225.713867188 410.607421875 228.571289062 344.893554688 230.286132812 c 0
 335.46484375 159.713867188 329.46484375 88.2861328125 323.46484375 17.142578125 c 0
 321.46484375 -5.142578125 293.178710938 -5.142578125 295.178710938 17.142578125 c 0
 301.178710938 88.5712890625 307.178710938 160 316.321289062 230.857421875 c 1
 260.036132812 231.713867188 203.46484375 232 147.178710938 230.286132812 c 0
 138.893554688 172 131.75 113.428710938 126.893554688 54.5712890625 c 0
 124.893554688 32.2861328125 96.607421875 32.2861328125 98.607421875 54.5712890625 c 0
 103.46484375 113.142578125 110.321289062 171.142578125 118.607421875 228.857421875 c 1
 86.607421875 227.713867188 54.607421875 226.571289062 22.607421875 224.571289062 c 0
 4.3212890625 223.428710938 4.607421875 258.286132812 22.607421875 259.428710938 c 0
 56.3212890625 261.713867188 90.0361328125 262.857421875 123.75 264 c 0
 133.46484375 327.142578125 144.893554688 390 158.321289062 452 c 1
 114.893554688 453.713867188 71.46484375 455.428710938 28.0361328125 458 c 0
 9.75 458.857421875 9.75 494 28.0361328125 492.857421875 c 0
 74.0361328125 490 120.036132812 488.286132812 166.036132812 486.571289062 c 0
 182.893554688 560 202.321289062 632.571289062 224.607421875 704 c 0
 230.893554688 724.571289062 258.321289062 715.713867188 251.75 694.571289062 c 0
 230.321289062 626 211.75 556.286132812 195.178710938 485.713867188 c 1
 252.321289062 484 309.46484375 482.857421875 366.607421875 482.857421875 c 0
 387.46484375 558.286132812 413.178710938 631.713867188 443.46484375 702 c 0
 452.036132812 721.713867188 476.321289062 704 467.75 684.286132812 c 0
 439.75 619.428710938 416.036132812 551.713867188 396.321289062 482.571289062 c 1
 439.46484375 482.857421875 482.607421875 483.142578125 525.75 484.286132812 c 0
 544.036132812 484.857421875 544.036132812 449.713867188 525.75 449.428710938 c 0
 479.46484375 448.571289062 432.893554688 448 386.321289062 448 c 0
 379.46484375 421.428710938 373.178710938 394.857421875 367.46484375 367.713867188 c 0
 360.321289062 333.713867188 354.607421875 299.142578125 349.46484375 264.571289062 c 1
 413.46484375 262.857421875 477.75 260 541.75 254.857421875 c 2
152.036132812 265.428710938 m 1
 152.036132812 265.713867188 l 2
 208.321289062 267.142578125 264.607421875 266.857421875 320.893554688 265.713867188 c 0
 326.036132812 303.142578125 332.321289062 340.571289062 340.036132812 377.428710938 c 0
 345.178710938 401.428710938 350.893554688 425.142578125 356.893554688 448.571289062 c 1
 300.321289062 448.857421875 243.46484375 449.713867188 186.893554688 451.428710938 c 0
 173.46484375 390 161.75 328 152.036132812 265.428710938 c 1
EndSplineSet
EndChar

StartChar: dollar
Encoding: 36 36 31
Width: 475
Flags: HW
LayerCount: 2
Fore
SplineSet
280.388671875 402 m 1
 280.959960938 402.286132812 l 2
 385.817382812 371.428710938 479.532226562 306.286132812 464.959960938 191.428710938 c 0
 452.674804688 95.4287109375 358.674804688 27.4287109375 258.388671875 27.142578125 c 0
 255.532226562 -10.5712890625 253.24609375 -48 249.817382812 -85.4287109375 c 0
 247.532226562 -108 209.817382812 -108.286132812 211.817382812 -85.4287109375 c 0
 215.532226562 -47.142578125 217.817382812 -8.5712890625 220.674804688 30 c 0
 122.674804688 46.2861328125 44.388671875 125.428710938 54.388671875 222.857421875 c 0
 56.6748046875 245.428710938 94.6748046875 245.713867188 92.388671875 222.857421875 c 0
 83.5322265625 136.857421875 148.388671875 82 223.532226562 68 c 1
 230.388671875 170.857421875 235.532226562 273.713867188 238.103515625 376.857421875 c 0
 226.959960938 379.713867188 216.103515625 382.571289062 205.532226562 385.713867188 c 0
 103.24609375 415.713867188 15.5322265625 477.713867188 9.24609375 586 c 0
 4.103515625 677.713867188 80.103515625 763.142578125 178.388671875 772.286132812 c 0
 200.674804688 774.571289062 221.532226562 772.571289062 241.24609375 767.713867188 c 0
 249.817382812 780 275.532226562 776.857421875 276.103515625 758 c 0
 276.103515625 756.857421875 276.103515625 756 276.103515625 754.857421875 c 0
 344.103515625 723.142578125 394.388671875 655.142578125 434.103515625 596 c 0
 446.959960938 576.571289062 414.103515625 558.571289062 401.24609375 578 c 0
 368.103515625 627.142578125 330.674804688 682.571289062 276.388671875 713.713867188 c 1
 278.674804688 610.286132812 278.388671875 506.571289062 276.103515625 403.142578125 c 0
 277.532226562 402.857421875 280.388671875 402 280.388671875 402 c 1
97.5322265625 479.142578125 m 2
 97.5322265625 478.857421875 l 2
 135.24609375 442.571289062 187.24609375 427.428710938 238.388671875 413.428710938 c 1
 240.674804688 518.857421875 240.959960938 624.571289062 238.388671875 730 c 0
 234.674804688 731.142578125 231.24609375 732.857421875 227.24609375 733.713867188 c 0
 156.959960938 750 81.5322265625 708.571289062 56.103515625 646 c 0
 32.9599609375 589.142578125 52.9599609375 522 97.5322265625 479.142578125 c 2
407.817382812 140.857421875 m 2
 407.817382812 141.142578125 l 2
 442.388671875 197.713867188 432.103515625 272.857421875 379.817382812 316.571289062 c 0
 350.103515625 341.428710938 313.24609375 355.428710938 275.532226562 366.571289062 c 1
 272.674804688 265.713867188 267.532226562 165.142578125 260.674804688 64.5712890625 c 1
 318.103515625 64.5712890625 375.817382812 88.2861328125 407.817382812 140.857421875 c 2
EndSplineSet
EndChar

StartChar: percent
Encoding: 37 37 32
Width: 787
Flags: HW
LayerCount: 2
Fore
SplineSet
556.610351562 707.713867188 m 0
 567.181640625 728 598.0390625 710 587.467773438 690 c 0
 469.75390625 463.142578125 351.75390625 236 234.0390625 9.142578125 c 0
 223.467773438 -11.142578125 192.610351562 6.857421875 203.181640625 26.857421875 c 0
 320.896484375 253.713867188 438.896484375 480.857421875 556.610351562 707.713867188 c 0
775.181640625 206.571289062 m 2
 775.467773438 206.571289062 l 2
 787.467773438 135.713867188 760.0390625 59.142578125 700.0390625 20.5712890625 c 0
 645.181640625 -14.5712890625 572.896484375 -2.5712890625 526.896484375 42.857421875 c 0
 478.0390625 90.857421875 470.0390625 170.571289062 498.0390625 232.286132812 c 0
 518.896484375 278.571289062 560.0390625 310.571289062 606.325195312 325.142578125 c 1
 604.0390625 329.713867188 603.467773438 335.142578125 604.610351562 339.428710938 c 0
 607.467773438 350.286132812 617.181640625 354.286132812 627.181640625 352.857421875 c 0
 699.467773438 342.571289062 762.325195312 282 775.181640625 206.571289062 c 2
701.467773438 70.5712890625 m 0
 739.75390625 110 751.181640625 172.286132812 732.325195312 224.286132812 c 0
 720.325195312 257.428710938 696.325195312 283.142578125 666.896484375 299.142578125 c 0
 664.0390625 296.857421875 660.896484375 295.142578125 656.610351562 295.142578125 c 0
 600.0390625 293.428710938 542.896484375 257.713867188 524.896484375 199.713867188 c 0
 508.896484375 148.857421875 522.325195312 88.2861328125 566.896484375 58 c 0
 610.0390625 28.5712890625 664.325195312 32.5712890625 701.467773438 70.5712890625 c 0
281.75390625 658.571289062 m 0
 306.0390625 582.857421875 326.896484375 496.286132812 281.181640625 424.286132812 c 0
 245.75390625 368.286132812 175.181640625 340.857421875 112.0390625 369.428710938 c 0
 48.6103515625 398 13.75390625 468.286132812 9.4677734375 533.142578125 c 0
 4.6103515625 601.713867188 37.75390625 671.428710938 99.75390625 706.857421875 c 0
 158.896484375 740.857421875 235.467773438 734.286132812 286.610351562 689.428710938 c 0
 298.610351562 678.857421875 292.610351562 664.571289062 281.75390625 658.571289062 c 0
261.181640625 481.142578125 m 1
 261.181640625 480.857421875 l 1
 277.75390625 542 256.325195312 604.571289062 237.181640625 662.571289062 c 0
 235.467773438 667.142578125 236.0390625 671.142578125 237.181640625 674.571289062 c 0
 193.467773438 698 136.610351562 690 99.181640625 656.571289062 c 0
 56.0390625 618 42.0390625 559.428710938 55.4677734375 505.142578125 c 0
 66.896484375 459.142578125 99.181640625 409.428710938 150.0390625 398.857421875 c 0
 204.325195312 387.713867188 248.610351562 434.286132812 261.181640625 481.142578125 c 1
EndSplineSet
EndChar

StartChar: ampersand
Encoding: 38 38 33
Width: 619
Flags: HW
LayerCount: 2
Fore
SplineSet
599.295898438 34 m 2
 599.295898438 33.7138671875 l 2
 623.868164062 22.5712890625 602.153320312 -8.857421875 577.868164062 2 c 0
 517.58203125 29.4287109375 462.153320312 62.2861328125 409.58203125 98.5712890625 c 0
 385.58203125 92 361.295898438 87.4287109375 337.010742188 83.142578125 c 0
 287.58203125 74.5712890625 237.010742188 66.2861328125 186.439453125 72 c 0
 117.295898438 79.7138671875 49.58203125 118.286132812 40.1533203125 181.428710938 c 0
 30.439453125 248 86.1533203125 292.571289062 148.439453125 320.857421875 c 1
 135.868164062 333.142578125 123.295898438 345.428710938 110.724609375 357.713867188 c 0
 57.0107421875 410.571289062 0.1533203125 468 10.1533203125 542.857421875 c 0
 19.0107421875 610.286132812 75.0107421875 665.142578125 145.58203125 692.571289062 c 0
 211.58203125 718 308.153320312 732.286132812 363.58203125 682 c 0
 411.295898438 638.571289062 420.153320312 568.286132812 409.58203125 511.713867188 c 0
 397.868164062 449.428710938 359.868164062 390.286132812 302.724609375 350.571289062 c 0
 279.868164062 334.571289062 248.153320312 322.857421875 216.153320312 310.571289062 c 1
 278.724609375 250.857421875 343.868164062 193.142578125 415.295898438 141.713867188 c 0
 486.724609375 167.142578125 552.153320312 211.428710938 508.439453125 280.857421875 c 0
 495.295898438 301.713867188 532.153320312 320.286132812 545.295898438 299.428710938 c 0
 588.153320312 231.142578125 543.295898438 157.428710938 470.439453125 121.142578125 c 0
 465.58203125 118.571289062 460.153320312 116.857421875 455.010742188 114.571289062 c 1
 500.439453125 84.5712890625 547.868164062 57.142578125 599.295898438 34 c 2
60.724609375 568.857421875 m 0
 23.58203125 480.286132812 114.153320312 409.713867188 175.868164062 349.428710938 c 0
 179.868164062 345.428710938 183.868164062 341.713867188 187.868164062 337.713867188 c 0
 259.868164062 367.713867188 319.868164062 400.571289062 351.868164062 469.142578125 c 0
 378.439453125 526 389.010742188 636.286132812 312.153320312 670.571289062 c 0
 267.010742188 690.857421875 199.010742188 674.857421875 156.153320312 656.571289062 c 0
 113.010742188 638.286132812 77.2958984375 608 60.724609375 568.857421875 c 0
325.868164062 118.857421875 m 1
 325.868164062 118.571289062 l 1
 338.439453125 120.571289062 353.295898438 123.713867188 368.724609375 127.713867188 c 1
 299.868164062 179.142578125 236.439453125 236 175.58203125 294.571289062 c 0
 134.153320312 276.857421875 97.2958984375 254.857421875 85.0107421875 218 c 0
 67.58203125 165.713867188 114.724609375 125.428710938 169.295898438 112.286132812 c 0
 220.153320312 100 275.58203125 110 325.868164062 118.857421875 c 1
EndSplineSet
EndChar

StartChar: quotesingle
Encoding: 39 39 34
Width: 91
Flags: HW
LayerCount: 2
Fore
SplineSet
80.6396484375 489.713867188 m 0
 82.353515625 478.571289062 77.7822265625 466.857421875 68.068359375 463.713867188 c 0
 59.2109375 460.857421875 48.068359375 467.428710938 46.068359375 478.571289062 c 2
 10.353515625 689.428710938 l 2
 8.6396484375 700.571289062 13.2109375 712.286132812 22.92578125 715.428710938 c 0
 31.7822265625 718.286132812 42.92578125 711.713867188 44.92578125 700.571289062 c 0
 56.6396484375 630.286132812 68.6396484375 560 80.6396484375 489.713867188 c 0
EndSplineSet
EndChar

StartChar: parenleft
Encoding: 40 40 35
Width: 193
Flags: HW
LayerCount: 2
Fore
SplineSet
181.17578125 -174 m 0
 194.318359375 -192.857421875 163.17578125 -210.857421875 150.318359375 -192 c 0
 -35.109375 76.857421875 -38.2529296875 435.428710938 142.033203125 707.713867188 c 0
 154.604492188 726.857421875 185.747070312 708.857421875 172.890625 689.713867188 c 0
 -0.82421875 427.142578125 2.6044921875 85.142578125 181.17578125 -174 c 0
EndSplineSet
EndChar

StartChar: parenright
Encoding: 41 41 36
Width: 186
Flags: HW
LayerCount: 2
Fore
SplineSet
63.095703125 707.142578125 m 0
 222.524414062 428.857421875 214.810546875 78.857421875 42.810546875 -191.428710938 c 0
 30.2392578125 -211.428710938 -0.6181640625 -192.857421875 11.953125 -172.857421875 c 0
 177.095703125 86.857421875 185.381835938 420.857421875 32.2392578125 688.571289062 c 0
 20.5244140625 709.142578125 51.3818359375 727.713867188 63.095703125 707.142578125 c 0
EndSplineSet
EndChar

StartChar: asterisk
Encoding: 42 42 37
Width: 358
Flags: HW
LayerCount: 2
Fore
SplineSet
324.25 634.286132812 m 2
 324.536132812 635.142578125 l 2
 348.25 643.428710938 358.25 605.428710938 334.822265625 597.142578125 c 0
 283.107421875 578.857421875 230.25 564.286132812 176.822265625 552.857421875 c 1
 210.536132812 528.571289062 246.25 507.142578125 283.96484375 489.428710938 c 0
 293.393554688 485.142578125 295.678710938 471.142578125 290.822265625 462.571289062 c 0
 285.107421875 452.571289062 273.678710938 450.857421875 264.25 455.428710938 c 0
 221.678710938 475.142578125 181.393554688 499.428710938 143.678710938 527.142578125 c 1
 129.107421875 495.428710938 113.393554688 464.286132812 95.3935546875 434.286132812 c 0
 82.5361328125 412.571289062 48.822265625 432.286132812 61.96484375 454 c 0
 78.5361328125 481.428710938 93.107421875 510.286132812 106.536132812 539.428710938 c 1
 80.5361328125 535.428710938 54.5361328125 532.286132812 28.5361328125 530 c 0
 3.6787109375 527.713867188 3.96484375 567.142578125 28.5361328125 569.428710938 c 0
 47.3935546875 571.142578125 66.25 573.713867188 84.822265625 576.286132812 c 1
 64.25 595.142578125 44.5361328125 614.571289062 26.25 635.713867188 c 0
 9.96484375 654.571289062 37.107421875 682.571289062 53.6787109375 663.428710938 c 0
 76.5361328125 636.571289062 102.25 612.571289062 128.822265625 589.713867188 c 1
 144.822265625 630.286132812 158.25 672 168.536132812 714.571289062 c 0
 174.536132812 739.142578125 211.96484375 728.571289062 205.96484375 704 c 0
 196.536132812 665.428710938 184.536132812 627.713867188 170.536132812 590.857421875 c 1
 222.536132812 602 273.96484375 616.286132812 324.25 634.286132812 c 2
EndSplineSet
EndChar

StartChar: plus
Encoding: 43 43 38
Width: 493
Flags: HW
LayerCount: 2
Fore
SplineSet
464.357421875 361.142578125 m 0
 489.213867188 361.142578125 489.213867188 322.286132812 464.357421875 322.286132812 c 0
 398.928710938 322.571289062 333.786132812 322.857421875 268.357421875 323.142578125 c 0
 267.500976562 260.571289062 266.357421875 197.713867188 265.500976562 135.142578125 c 0
 264.928710938 110 226.357421875 110 226.642578125 135.142578125 c 0
 227.500976562 197.713867188 228.642578125 260.571289062 229.500976562 323.142578125 c 1
 162.642578125 323.428710938 95.5009765625 323.713867188 28.642578125 324 c 0
 3.7861328125 324 3.7861328125 362.857421875 28.642578125 362.857421875 c 0
 95.7861328125 362.571289062 162.928710938 362.286132812 230.071289062 362 c 0
 231.213867188 431.428710938 232.071289062 500.857421875 233.213867188 570.286132812 c 0
 233.786132812 595.428710938 272.357421875 595.428710938 272.071289062 570.286132812 c 0
 270.928710938 500.857421875 270.071289062 431.428710938 268.928710938 362 c 1
 334.071289062 361.713867188 399.213867188 361.428710938 464.357421875 361.142578125 c 0
EndSplineSet
EndChar

StartChar: comma
Encoding: 44 44 39
Width: 126
Flags: HW
LayerCount: 2
Fore
SplineSet
112.838867188 10 m 2
 113.125 9.7138671875 l 2
 116.838867188 -10.2861328125 115.981445312 -30.2861328125 107.696289062 -48.857421875 c 0
 94.552734375 -79.142578125 56.552734375 -100 24.267578125 -87.7138671875 c 0
 15.125 -84.2861328125 8.8388671875 -75.7138671875 11.6962890625 -65.7138671875 c 0
 13.9814453125 -56.857421875 24.552734375 -49.7138671875 33.6962890625 -53.142578125 c 0
 35.9814453125 -54 38.267578125 -54.5712890625 40.8388671875 -55.142578125 c 1
 41.9814453125 -55.142578125 43.125 -55.142578125 44.267578125 -55.142578125 c 0
 45.125 -55.142578125 47.9814453125 -54.857421875 47.9814453125 -54.857421875 c 2
 49.6962890625 -54.2861328125 51.6962890625 -54 53.41015625 -53.4287109375 c 0
 53.6962890625 -53.142578125 55.41015625 -52.2861328125 55.9814453125 -52.2861328125 c 0
 56.267578125 -51.7138671875 56.8388671875 -51.7138671875 56.8388671875 -51.7138671875 c 2
 58.8388671875 -50.5712890625 60.8388671875 -49.4287109375 62.8388671875 -48.2861328125 c 0
 63.125 -48 63.6962890625 -47.7138671875 63.6962890625 -47.7138671875 c 2
 64.552734375 -46.857421875 65.41015625 -46.2861328125 65.9814453125 -45.7138671875 c 0
 67.41015625 -44.2861328125 68.8388671875 -42.857421875 70.267578125 -41.4287109375 c 0
 70.8388671875 -40.857421875 71.6962890625 -39.7138671875 71.6962890625 -39.7138671875 c 2
 71.9814453125 -39.142578125 72.267578125 -38.857421875 72.552734375 -38.2861328125 c 0
 73.6962890625 -36.5712890625 74.552734375 -34.857421875 75.41015625 -33.142578125 c 0
 76.552734375 -30.857421875 77.6962890625 -26.857421875 78.552734375 -22.857421875 c 0
 79.9814453125 -16.857421875 79.6962890625 -5.7138671875 78.552734375 0.5712890625 c 0
 77.6962890625 4.2861328125 76.8388671875 7.4287109375 75.6962890625 10.857421875 c 1
 68.267578125 5.142578125 58.267578125 2.857421875 48.267578125 6 c 0
 27.125 12.857421875 17.9814453125 38 30.8388671875 56.2861328125 c 0
 44.552734375 75.7138671875 70.267578125 75.142578125 87.41015625 60.5712890625 c 0
 101.41015625 48.5712890625 109.41015625 27.7138671875 112.838867188 10 c 2
EndSplineSet
EndChar

StartChar: hyphen
Encoding: 45 45 40
Width: 275
Flags: HW
LayerCount: 2
Fore
SplineSet
247.107421875 277.428710938 m 2
 270.25 277.428710938 269.963867188 241.713867188 247.107421875 241.713867188 c 2
 28.25 241.713867188 l 2
 5.107421875 241.713867188 5.392578125 277.428710938 28.25 277.428710938 c 2
 247.107421875 277.428710938 l 2
EndSplineSet
EndChar

StartChar: period
Encoding: 46 46 41
Width: 91
Flags: HW
LayerCount: 2
Fore
SplineSet
79.236328125 46 m 1
 79.5224609375 46.5712890625 l 1
 82.09375 34.2861328125 79.236328125 20.2861328125 69.5224609375 12.2861328125 c 0
 63.5224609375 7.142578125 55.80859375 3.7138671875 47.5224609375 4.2861328125 c 0
 40.951171875 4.5712890625 34.09375 6.2861328125 28.6650390625 10 c 0
 23.236328125 13.7138671875 18.09375 18.5712890625 15.236328125 24.5712890625 c 0
 12.6650390625 29.4287109375 11.80859375 33.4287109375 11.236328125 38.857421875 c 0
 10.6650390625 42.5712890625 11.236328125 46 11.80859375 49.7138671875 c 0
 11.80859375 50 12.3798828125 50.5712890625 12.3798828125 51.142578125 c 0
 12.951171875 55.142578125 13.80859375 58.2861328125 15.5224609375 62.2861328125 c 0
 15.5224609375 62.5712890625 16.09375 62.857421875 16.09375 62.857421875 c 2
 16.3798828125 75.4287109375 27.236328125 85.7138671875 40.09375 85.7138671875 c 0
 49.5224609375 85.7138671875 58.3798828125 80.5712890625 64.3798828125 73.4287109375 c 0
 64.951171875 73.142578125 64.951171875 72.857421875 64.951171875 72.857421875 c 2
 70.951171875 68.857421875 75.80859375 62.5712890625 78.09375 55.4287109375 c 0
 78.951171875 52.5712890625 79.236328125 49.142578125 79.236328125 46 c 1
EndSplineSet
EndChar

StartChar: slash
Encoding: 47 47 42
Width: 264
Flags: HW
LayerCount: 2
Fore
SplineSet
218.953125 703.142578125 m 0
 226.380859375 725.713867188 260.953125 715.713867188 253.524414062 693.142578125 c 0
 179.809570312 468.857421875 95.5244140625 244.857421875 44.095703125 13.4287109375 c 0
 38.6669921875 -9.7138671875 4.380859375 0 9.5244140625 23.4287109375 c 0
 60.953125 254.857421875 145.23828125 478.571289062 218.953125 703.142578125 c 0
EndSplineSet
EndChar

StartChar: zero
Encoding: 48 48 43
Width: 466
Flags: HW
LayerCount: 2
Fore
SplineSet
423.482421875 604.857421875 m 0
 456.625976562 542 460.625976562 462.571289062 453.768554688 390 c 0
 446.911132812 316.571289062 431.482421875 244.286132812 409.197265625 175.713867188 c 0
 391.482421875 120.857421875 371.197265625 55.4287109375 328.0546875 22.857421875 c 0
 240.33984375 -43.142578125 121.482421875 47.4287109375 67.7685546875 133.142578125 c 0
 3.482421875 235.142578125 -7.9453125 373.713867188 32.9111328125 491.713867188 c 0
 73.482421875 608.857421875 163.197265625 691.713867188 264.33984375 715.713867188 c 0
 276.0546875 718.286132812 284.0546875 708.286132812 286.0546875 697.428710938 c 1
 288.625976562 699.142578125 291.482421875 700 294.911132812 700 c 0
 348.625976562 697.428710938 394.625976562 659.713867188 423.482421875 604.857421875 c 0
419.768554688 413.142578125 m 2
 420.0546875 413.428710938 l 2
 426.0546875 514.286132812 395.197265625 652 294.911132812 656.857421875 c 0
 284.625976562 657.142578125 279.197265625 666.286132812 278.0546875 676 c 1
 276.625976562 675.142578125 275.482421875 674 273.768554688 673.713867188 c 0
 178.0546875 650.857421875 93.197265625 572 60.0546875 457.428710938 c 0
 29.7685546875 353.713867188 43.7685546875 235.713867188 101.768554688 150.571289062 c 0
 148.33984375 82.5712890625 264.0546875 -6.2861328125 327.482421875 79.4287109375 c 0
 357.768554688 120.571289062 374.33984375 181.428710938 388.33984375 232.857421875 c 0
 404.0546875 290.857421875 416.0546875 352 419.768554688 413.142578125 c 2
EndSplineSet
EndChar

StartChar: one
Encoding: 49 49 44
Width: 63
Flags: HW
LayerCount: 2
Fore
SplineSet
18.1455078125 699.428710938 m 0
 18.4306640625 723.713867188 54.1455078125 723.713867188 53.859375 699.428710938 c 0
 50.716796875 472 47.859375 244.286132812 44.716796875 16.857421875 c 0
 44.4306640625 -7.4287109375 8.716796875 -7.4287109375 9.001953125 16.857421875 c 0
 12.1455078125 244.286132812 15.001953125 472 18.1455078125 699.428710938 c 0
EndSplineSet
EndChar

StartChar: two
Encoding: 50 50 45
Width: 542
Flags: HW
LayerCount: 2
Fore
SplineSet
516.219726562 62.5712890625 m 1
 515.93359375 62.5712890625 l 1
 539.076171875 63.7138671875 538.791015625 24.857421875 515.93359375 23.7138671875 c 0
 352.791015625 16 189.647460938 8 26.5048828125 0.2861328125 c 0
 6.2197265625 -0.857421875 2.2197265625 33.4287109375 21.6474609375 38.2861328125 c 0
 191.93359375 81.4287109375 340.219726562 206.286132812 419.362304688 376 c 0
 460.219726562 463.713867188 498.504882812 618 386.791015625 666.571289062 c 0
 291.647460938 708 165.647460938 660.571289062 83.93359375 605.142578125 c 0
 64.5048828125 591.713867188 46.5048828125 625.428710938 65.93359375 638.571289062 c 0
 149.93359375 695.713867188 257.647460938 731.428710938 357.362304688 714.571289062 c 0
 439.076171875 700.857421875 491.93359375 633.713867188 496.791015625 544.571289062 c 0
 501.647460938 454 458.504882812 360.571289062 413.076171875 287.428710938 c 0
 347.362304688 181.713867188 255.076171875 97.7138671875 149.076171875 44.857421875 c 1
 271.647460938 50.857421875 393.93359375 56.5712890625 516.219726562 62.5712890625 c 1
EndSplineSet
EndChar

StartChar: three
Encoding: 51 51 46
Width: 488
Flags: HW
LayerCount: 2
Fore
SplineSet
372.068359375 383.142578125 m 1
 371.783203125 383.142578125 l 1
 420.068359375 338.571289062 478.354492188 258 478.92578125 179.428710938 c 0
 479.497070312 92.5712890625 401.211914062 61.142578125 347.211914062 35.142578125 c 0
 278.354492188 2 206.92578125 -12.5712890625 137.211914062 24 c 0
 78.92578125 54.5712890625 34.3544921875 111.713867188 10.3544921875 183.428710938 c 0
 1.783203125 209.713867188 36.3544921875 220.857421875 44.92578125 195.142578125 c 0
 70.068359375 120 126.92578125 64.5712890625 191.497070312 49.142578125 c 0
 261.211914062 32.5712890625 341.211914062 71.4287109375 401.783203125 111.713867188 c 0
 441.211914062 138 452.640625 178.571289062 432.068359375 228.857421875 c 0
 417.211914062 265.428710938 395.211914062 299.142578125 371.211914062 326.857421875 c 0
 344.354492188 357.713867188 310.354492188 380.286132812 274.92578125 387.713867188 c 0
 240.640625 374.571289062 205.211914062 365.142578125 169.783203125 359.713867188 c 0
 150.354492188 356.571289062 147.783203125 389.713867188 160.640625 400.571289062 c 0
 194.068359375 429.142578125 232.92578125 438.286132812 271.211914062 432.857421875 c 0
 297.497070312 443.713867188 323.211914062 457.142578125 347.497070312 473.713867188 c 0
 373.211914062 491.142578125 403.497070312 512.857421875 412.068359375 550 c 0
 421.211914062 589.428710938 395.211914062 615.428710938 370.068359375 632 c 0
 274.92578125 695.428710938 153.783203125 681.142578125 65.783203125 606.571289062 c 0
 46.92578125 590.571289062 28.92578125 628.571289062 47.783203125 644.571289062 c 0
 104.354492188 692.286132812 172.068359375 717.142578125 240.640625 716 c 0
 302.354492188 715.142578125 376.92578125 694.286132812 422.640625 640.286132812 c 0
 476.354492188 576.857421875 440.068359375 493.713867188 387.211914062 451.713867188 c 0
 368.640625 437.142578125 349.211914062 424.571289062 329.211914062 413.428710938 c 1
 344.354492188 405.142578125 358.92578125 395.142578125 372.068359375 383.142578125 c 1
EndSplineSet
EndChar

StartChar: four
Encoding: 52 52 47
Width: 633
Flags: HW
LayerCount: 2
Fore
SplineSet
608.619140625 311.142578125 m 2
 608.905273438 310.857421875 l 2
 629.4765625 312.571289062 629.190429688 276.286132812 608.905273438 274.571289062 c 0
 544.905273438 269.428710938 481.190429688 264.571289062 417.190429688 259.428710938 c 0
 416.333984375 179.428710938 415.762695312 99.7138671875 414.905273438 19.7138671875 c 0
 414.619140625 -3.7138671875 383.190429688 -3.7138671875 383.190429688 19.7138671875 c 0
 383.762695312 98.857421875 384.619140625 177.713867188 385.190429688 256.857421875 c 1
 264.619140625 247.142578125 144.333984375 237.713867188 24.0478515625 228.286132812 c 0
 8.9052734375 227.142578125 5.1904296875 248.286132812 12.9052734375 259.428710938 c 0
 126.047851562 421.428710938 250.619140625 572.286132812 385.190429688 710.857421875 c 0
 400.333984375 726.571289062 422.905273438 700.857421875 407.762695312 685.142578125 c 0
 282.619140625 556.286132812 166.619140625 416.571289062 60.0478515625 267.713867188 c 1
 168.619140625 276.286132812 276.905273438 284.857421875 385.4765625 293.428710938 c 0
 386.047851562 354.286132812 386.619140625 415.428710938 387.190429688 476.286132812 c 0
 387.4765625 499.713867188 418.905273438 499.713867188 418.905273438 476.286132812 c 0
 418.333984375 416.286132812 417.762695312 356 417.190429688 296 c 1
 480.905273438 301.142578125 544.905273438 306 608.619140625 311.142578125 c 2
EndSplineSet
EndChar

StartChar: five
Encoding: 53 53 48
Width: 630
Flags: HW
LayerCount: 2
Fore
SplineSet
614.470703125 308.571289062 m 2
 614.755859375 308.571289062 l 2
 641.61328125 209.142578125 581.61328125 113.142578125 499.041992188 64.857421875 c 0
 411.327148438 13.4287109375 287.61328125 -7.142578125 188.184570312 10 c 0
 98.1845703125 25.4287109375 15.3271484375 91.142578125 9.0419921875 190 c 0
 7.61328125 213.713867188 43.3271484375 213.428710938 44.755859375 190 c 0
 52.755859375 62.857421875 195.899414062 34.857421875 294.470703125 44.2861328125 c 0
 400.755859375 54.2861328125 531.61328125 89.4287109375 575.041992188 202.571289062 c 0
 618.184570312 315.142578125 519.61328125 425.428710938 421.041992188 459.142578125 c 0
 318.755859375 494 208.470703125 456.857421875 140.184570312 372.857421875 c 0
 127.327148438 357.142578125 108.184570312 374.857421875 110.470703125 390.857421875 c 0
 124.755859375 493.428710938 148.184570312 593.713867188 179.899414062 692 c 0
 177.327148438 702.571289062 182.755859375 715.428710938 196.470703125 715.428710938 c 0
 303.327148438 715.713867188 410.470703125 716.286132812 517.327148438 716.286132812 c 0
 540.470703125 716.286132812 540.184570312 679.428710938 517.327148438 679.428710938 c 0
 415.899414062 679.142578125 314.755859375 678.571289062 213.327148438 678.571289062 c 0
 188.184570312 599.713867188 168.470703125 519.428710938 154.184570312 438 c 1
 225.041992188 498 320.470703125 523.713867188 411.327148438 500.286132812 c 0
 502.470703125 476.571289062 588.755859375 404 614.470703125 308.571289062 c 2
EndSplineSet
EndChar

StartChar: six
Encoding: 54 54 49
Width: 475
Flags: HW
LayerCount: 2
Fore
SplineSet
432.947265625 276.857421875 m 1
 432.662109375 277.142578125 l 1
 493.51953125 195.713867188 469.51953125 84.857421875 370.947265625 32 c 0
 274.662109375 -19.7138671875 152.947265625 4 81.51953125 74.857421875 c 0
 -4.1953125 160 -1.9091796875 275.142578125 27.2333984375 377.713867188 c 0
 60.947265625 495.713867188 121.233398438 608.571289062 199.51953125 710.571289062 c 0
 215.233398438 730.857421875 254.375976562 712 238.662109375 691.428710938 c 0
 168.090820312 599.428710938 112.375976562 498.571289062 78.947265625 392.857421875 c 1
 210.947265625 414.286132812 359.51953125 374.857421875 432.947265625 276.857421875 c 1
168.090820312 61.7138671875 m 1
 168.090820312 62 l 1
 292.375976562 -0.5712890625 451.8046875 94 417.51953125 212.571289062 c 0
 384.090820312 327.713867188 214.947265625 377.713867188 88.0908203125 356.286132812 c 0
 80.3759765625 354.857421875 74.0908203125 356.857421875 69.2333984375 360 c 1
 41.2333984375 256.286132812 45.2333984375 123.428710938 168.090820312 61.7138671875 c 1
EndSplineSet
EndChar

StartChar: seven
Encoding: 55 55 50
Width: 481
Flags: HW
LayerCount: 2
Fore
SplineSet
452.143554688 422.286132812 m 2
 452.428710938 421.713867188 l 2
 478.71484375 422 478.71484375 384.857421875 452.428710938 384.857421875 c 0
 418.143554688 384.286132812 384.143554688 384 350.143554688 383.713867188 c 0
 299.286132812 256.857421875 239.857421875 132.571289062 171.286132812 12.5712890625 c 0
 159.286132812 -8.5712890625 124.143554688 10.2861328125 136.143554688 31.142578125 c 0
 201.286132812 145.428710938 258.143554688 262.857421875 307 383.428710938 c 1
 249.857421875 382.857421875 192.428710938 382.286132812 135.286132812 381.713867188 c 0
 109 381.428710938 109 418.571289062 135.286132812 418.571289062 c 0
 197.286132812 419.428710938 259.286132812 420 321.286132812 420.571289062 c 0
 330.71484375 445.142578125 340.428710938 469.428710938 349.286132812 494.286132812 c 0
 363.286132812 533.428710938 376.143554688 572.857421875 388.428710938 612.571289062 c 0
 391.571289062 623.713867188 408.428710938 658.571289062 398.143554688 666.857421875 c 0
 389.857421875 673.428710938 335 667.428710938 324.143554688 667.428710938 c 0
 225.857421875 668.286132812 127.286132812 669.142578125 28.71484375 670 c 0
 2.4287109375 670.286132812 2.4287109375 706.857421875 28.71484375 706.857421875 c 0
 146.71484375 706 265 705.713867188 383.286132812 703.713867188 c 0
 412.71484375 703.142578125 442.71484375 700.286132812 444.428710938 668 c 0
 445.286132812 650.571289062 436.143554688 631.428710938 431.286132812 614.857421875 c 0
 424.143554688 591.142578125 416.428710938 567.428710938 408.71484375 543.713867188 c 0
 395.286132812 502.857421875 380.143554688 462 364.71484375 421.428710938 c 1
 393.857421875 421.713867188 423 422 452.143554688 422.286132812 c 2
EndSplineSet
EndChar

StartChar: eight
Encoding: 56 56 51
Width: 488
Flags: HW
LayerCount: 2
Fore
SplineSet
440.6953125 413.142578125 m 1
 440.41015625 413.142578125 l 1
 486.981445312 361.428710938 486.981445312 276.857421875 464.124023438 212.571289062 c 0
 438.124023438 140.286132812 384.124023438 86.857421875 323.837890625 51.4287109375 c 0
 264.124023438 16.2861328125 192.6953125 -8.5712890625 125.266601562 11.4287109375 c 0
 70.9814453125 27.7138671875 20.9814453125 76.2861328125 10.9814453125 140.286132812 c 0
 -0.7333984375 214.857421875 41.552734375 283.713867188 83.837890625 336.286132812 c 0
 122.981445312 384.857421875 169.266601562 421.713867188 219.552734375 452.286132812 c 1
 209.552734375 454.857421875 199.837890625 457.428710938 189.837890625 460 c 0
 152.981445312 469.713867188 111.837890625 475.428710938 76.9814453125 492.857421875 c 0
 21.2666015625 520.571289062 10.6953125 591.142578125 60.1240234375 634.286132812 c 0
 87.552734375 658 124.6953125 672.857421875 156.6953125 687.142578125 c 0
 187.266601562 700.857421875 218.981445312 711.428710938 251.552734375 716.286132812 c 0
 315.837890625 726 380.981445312 710.286132812 429.837890625 660.857421875 c 0
 432.6953125 658 433.837890625 655.142578125 434.6953125 652 c 1
 446.124023438 659.428710938 465.552734375 648.857421875 461.552734375 629.428710938 c 0
 444.981445312 550 386.981445312 500.571289062 325.266601562 465.428710938 c 1
 336.6953125 462.571289062 348.124023438 459.713867188 359.552734375 456.571289062 c 0
 388.981445312 448.571289062 418.6953125 437.713867188 440.6953125 413.142578125 c 1
96.41015625 527.142578125 m 1
 96.41015625 527.428710938 l 1
 140.41015625 507.713867188 192.41015625 500.571289062 238.6953125 488.571289062 c 0
 248.981445312 485.713867188 259.552734375 482.857421875 269.837890625 480.286132812 c 0
 332.6953125 512.857421875 401.837890625 550.857421875 423.837890625 629.142578125 c 1
 417.837890625 626.286132812 410.6953125 626.286132812 404.6953125 632.571289062 c 0
 329.837890625 708 223.837890625 677.713867188 141.552734375 636.857421875 c 0
 123.552734375 628 104.41015625 619.428710938 87.837890625 607.142578125 c 0
 75.2666015625 597.713867188 59.552734375 580.286132812 63.2666015625 560.571289062 c 0
 66.41015625 543.142578125 83.552734375 532.857421875 96.41015625 527.142578125 c 1
439.266601562 255.142578125 m 0
 448.6953125 298.286132812 445.266601562 352 415.552734375 384.857421875 c 0
 390.6953125 412.571289062 351.552734375 417.713867188 318.981445312 426.286132812 c 0
 304.124023438 430 289.552734375 434 274.981445312 437.713867188 c 0
 213.837890625 403.428710938 156.981445312 367.142578125 109.266601562 307.713867188 c 0
 61.552734375 248.286132812 12.9814453125 157.713867188 74.9814453125 88.2861328125 c 0
 132.981445312 23.142578125 222.124023438 41.142578125 289.266601562 76.5712890625 c 0
 356.6953125 112 420.981445312 170.286132812 439.266601562 255.142578125 c 0
EndSplineSet
EndChar

StartChar: nine
Encoding: 57 57 52
Width: 472
Flags: HW
LayerCount: 2
Fore
SplineSet
462.500976562 676.857421875 m 2
 462.215820312 676.857421875 l 2
 461.643554688 660.571289062 457.9296875 646.286132812 452.500976562 633.428710938 c 0
 404.215820312 431.428710938 378.500976562 225.142578125 375.643554688 17.4287109375 c 0
 375.358398438 -5.7138671875 339.643554688 -5.7138671875 339.9296875 17.4287109375 c 0
 342.500976562 204.857421875 363.643554688 391.428710938 402.500976562 574.571289062 c 1
 359.9296875 544.857421875 302.215820312 529.142578125 255.072265625 516.286132812 c 0
 204.215820312 502.286132812 151.072265625 489.428710938 98.5009765625 484.286132812 c 0
 66.5009765625 481.142578125 29.072265625 486.857421875 15.072265625 520.286132812 c 0
 -16.6416015625 596 83.3583984375 672.286132812 141.9296875 695.713867188 c 0
 234.787109375 732.857421875 335.9296875 712.571289062 428.215820312 683.428710938 c 0
 434.787109375 700.571289062 463.358398438 696.286132812 462.500976562 676.857421875 c 2
245.9296875 550.857421875 m 2
 246.215820312 550.571289062 l 2
 301.643554688 565.713867188 391.072265625 585.142578125 418.500976562 642.857421875 c 0
 419.072265625 644.857421875 419.358398438 646.571289062 419.9296875 648.571289062 c 0
 349.358398438 671.142578125 274.500976562 689.428710938 200.500976562 675.713867188 c 0
 140.215820312 664.571289062 68.787109375 625.713867188 49.6435546875 562.857421875 c 0
 32.2158203125 505.142578125 102.787109375 520.286132812 134.215820312 525.713867188 c 0
 171.643554688 532.286132812 209.072265625 540.857421875 245.9296875 550.857421875 c 2
EndSplineSet
EndChar

StartChar: colon
Encoding: 58 58 53
Width: 88
Flags: HW
LayerCount: 2
Fore
SplineSet
61.03125 510.286132812 m 1
 60.74609375 510.571289062 l 1
 70.173828125 498.286132812 79.6025390625 483.713867188 78.173828125 467.428710938 c 0
 76.74609375 451.428710938 67.3173828125 435.713867188 51.03125 431.142578125 c 0
 42.74609375 429.142578125 33.6025390625 430 26.4599609375 434.571289062 c 0
 19.3173828125 439.142578125 14.4599609375 445.713867188 11.6025390625 453.713867188 c 0
 8.74609375 461.713867188 9.888671875 470.857421875 13.6025390625 478.571289062 c 0
 17.03125 485.428710938 23.3173828125 489.713867188 30.173828125 492.571289062 c 1
 27.3173828125 496.286132812 27.6025390625 502 28.4599609375 506.286132812 c 0
 29.6025390625 510.857421875 33.03125 514.286132812 36.74609375 516.857421875 c 0
 40.4599609375 519.142578125 46.173828125 519.713867188 50.4599609375 518.571289062 c 0
 55.3173828125 517.142578125 58.173828125 514.286132812 61.03125 510.286132812 c 1
64.173828125 64.5712890625 m 2
 64.74609375 64.5712890625 l 2
 73.3173828125 56.857421875 79.3173828125 44.2861328125 78.173828125 32.5712890625 c 0
 77.6025390625 26 75.888671875 19.142578125 71.888671875 13.7138671875 c 0
 67.3173828125 7.4287109375 61.3173828125 2 53.3173828125 0.5712890625 c 0
 45.3173828125 -0.857421875 36.74609375 0 29.888671875 4.857421875 c 0
 25.3173828125 8 22.4599609375 10.857421875 19.3173828125 15.142578125 c 0
 17.3173828125 18 15.888671875 20.857421875 14.74609375 24 c 0
 11.888671875 31.142578125 12.173828125 39.142578125 13.3173828125 46.857421875 c 0
 13.6025390625 47.7138671875 14.173828125 48.5712890625 14.173828125 49.4287109375 c 0
 13.3173828125 50.857421875 12.74609375 51.7138671875 12.173828125 53.142578125 c 0
 10.74609375 57.4287109375 11.6025390625 63.142578125 13.888671875 66.857421875 c 0
 15.888671875 70.5712890625 20.173828125 74 24.4599609375 75.142578125 c 0
 38.74609375 78.5712890625 53.03125 74.2861328125 64.173828125 64.5712890625 c 2
EndSplineSet
EndChar

StartChar: semicolon
Encoding: 59 59 54
Width: 106
Flags: HW
LayerCount: 2
Fore
SplineSet
90.2109375 485.428710938 m 0
 91.6396484375 474 88.49609375 463.142578125 81.6396484375 454 c 0
 81.0673828125 452.571289062 80.2109375 451.142578125 79.353515625 449.713867188 c 0
 73.9248046875 441.428710938 66.49609375 434.857421875 57.6396484375 430.286132812 c 0
 52.2109375 427.713867188 47.0673828125 427.142578125 41.6396484375 429.428710938 c 0
 36.7822265625 431.713867188 32.49609375 435.713867188 31.353515625 441.142578125 c 0
 30.7822265625 443.142578125 30.49609375 445.142578125 29.9248046875 447.142578125 c 0
 27.0673828125 449.428710938 24.2109375 452.286132812 21.9248046875 455.428710938 c 0
 15.9248046875 463.713867188 13.6396484375 476 17.353515625 485.713867188 c 0
 21.353515625 496.571289062 29.353515625 504 40.2109375 508 c 0
 41.9248046875 508.571289062 43.353515625 508.857421875 45.0673828125 509.142578125 c 0
 45.9248046875 511.713867188 47.353515625 514 49.0673828125 516 c 0
 55.6396484375 523.142578125 67.353515625 522.286132812 74.2109375 516 c 0
 82.7822265625 508 88.49609375 497.142578125 90.2109375 485.428710938 c 0
89.9248046875 5.7138671875 m 2
 90.2109375 5.142578125 l 2
 95.6396484375 -16 99.9248046875 -42.5712890625 91.0673828125 -63.142578125 c 0
 81.0673828125 -86.2861328125 48.49609375 -92.857421875 33.6396484375 -70.5712890625 c 0
 27.9248046875 -62 32.2109375 -51.142578125 39.9248046875 -46 c 0
 45.9248046875 -42 53.353515625 -43.142578125 58.7822265625 -46.857421875 c 1
 59.0673828125 -46 59.353515625 -44.857421875 59.353515625 -44 c 0
 59.353515625 -43.7138671875 59.353515625 -40.857421875 59.353515625 -40.857421875 c 2
 59.9248046875 -25.7138671875 58.2109375 -14.5712890625 54.2109375 0 c 0
 53.6396484375 2.2861328125 52.7822265625 4.5712890625 52.2109375 6.5712890625 c 1
 42.2109375 -0.5712890625 27.6396484375 0.5712890625 18.49609375 9.4287109375 c 0
 8.7822265625 18.857421875 7.0673828125 34.857421875 15.0673828125 46 c 0
 17.9248046875 49.7138671875 21.353515625 52.5712890625 25.0673828125 54.857421875 c 0
 25.353515625 55.7138671875 25.353515625 56.5712890625 25.9248046875 57.4287109375 c 0
 30.49609375 65.4287109375 42.7822265625 68.857421875 50.49609375 63.7138671875 c 0
 55.0673828125 60.5712890625 59.353515625 57.4287109375 62.7822265625 53.4287109375 c 0
 78.2109375 43.142578125 85.353515625 22.857421875 89.9248046875 5.7138671875 c 2
EndSplineSet
EndChar

StartChar: less
Encoding: 60 60 55
Width: 492
Flags: HW
LayerCount: 2
Fore
SplineSet
467.049804688 177.428710938 m 0
 489.62109375 173.142578125 479.907226562 134 457.62109375 138.286132812 c 0
 301.907226562 169.142578125 152.764648438 234 18.478515625 328.857421875 c 0
 4.7646484375 338.571289062 8.7646484375 359.713867188 22.7646484375 366 c 0
 170.478515625 432 314.764648438 507.713867188 455.049804688 592.571289062 c 0
 475.3359375 604.857421875 493.3359375 569.713867188 473.049804688 557.428710938 c 0
 341.3359375 477.713867188 205.62109375 406.571289062 67.3359375 343.142578125 c 1
 191.049804688 261.428710938 326.193359375 205.428710938 467.049804688 177.428710938 c 0
EndSplineSet
EndChar

StartChar: equal
Encoding: 61 61 56
Width: 493
Flags: HW
LayerCount: 2
Fore
SplineSet
464.500976562 497.713867188 m 0
 489.357421875 498.286132812 489.357421875 462.571289062 464.500976562 462 c 0
 319.642578125 459.428710938 174.500976562 456.571289062 29.642578125 454 c 0
 4.7861328125 453.428710938 4.7861328125 489.142578125 29.642578125 489.713867188 c 0
 174.500976562 492.286132812 319.642578125 495.142578125 464.500976562 497.713867188 c 0
459.928710938 281.428710938 m 1
 459.928710938 281.713867188 l 2
 483.071289062 286.286132812 492.786132812 252 469.642578125 247.142578125 c 0
 324.500976562 217.428710938 175.642578125 211.428710938 28.5009765625 230 c 0
 5.357421875 232.857421875 5.0712890625 268.571289062 28.5009765625 265.713867188 c 0
 172.213867188 247.428710938 317.928710938 252.571289062 459.928710938 281.428710938 c 1
EndSplineSet
EndChar

StartChar: greater
Encoding: 62 62 57
Width: 492
Flags: HW
LayerCount: 2
Fore
SplineSet
468.099609375 373.142578125 m 0
 484.384765625 369.142578125 486.384765625 344.286132812 472.670898438 335.428710938 c 0
 407.2421875 293.713867188 335.52734375 263.713867188 265.52734375 231.428710938 c 0
 192.670898438 197.713867188 120.099609375 164 47.2421875 130.286132812 c 0
 24.6708984375 120 5.2421875 155.428710938 27.8134765625 166 c 0
 100.670898438 199.713867188 173.2421875 233.428710938 246.099609375 267.142578125 c 0
 301.2421875 292.571289062 357.52734375 316.857421875 411.2421875 346.571289062 c 1
 269.52734375 389.142578125 135.813476562 459.713867188 18.099609375 555.428710938 c 0
 -1.3291015625 571.428710938 17.8134765625 607.142578125 37.52734375 591.142578125 c 0
 165.52734375 486.857421875 311.813476562 412.857421875 468.099609375 373.142578125 c 0
EndSplineSet
EndChar

StartChar: question
Encoding: 63 63 58
Width: 459
Flags: HW
LayerCount: 2
Fore
SplineSet
228.541015625 715.713867188 m 1
 228.254882812 715.428710938 l 1
 367.96875 708.571289062 473.397460938 582 445.112304688 450.857421875 c 0
 432.254882812 390.286132812 390.541015625 335.142578125 334.541015625 303.713867188 c 0
 303.397460938 286 263.68359375 280 237.112304688 255.713867188 c 0
 210.541015625 231.713867188 202.254882812 194.857421875 212.254882812 162 c 0
 219.68359375 137.713867188 179.96875 127.428710938 172.541015625 151.713867188 c 0
 150.541015625 224.286132812 193.68359375 287.713867188 263.397460938 315.713867188 c 0
 301.68359375 331.142578125 335.96875 346.857421875 363.112304688 377.713867188 c 0
 388.826171875 406.857421875 405.68359375 444 408.541015625 482 c 0
 414.254882812 563.428710938 358.826171875 643.713867188 276.541015625 668.286132812 c 0
 183.397460938 696 105.112304688 653.713867188 43.68359375 589.428710938 c 0
 25.68359375 570.857421875 -3.173828125 598.571289062 14.541015625 617.142578125 c 0
 71.68359375 676.571289062 140.541015625 720 228.541015625 715.713867188 c 1
251.112304688 66.5712890625 m 2
 251.397460938 66.5712890625 l 2
 256.541015625 55.4287109375 257.68359375 42.5712890625 253.397460938 31.142578125 c 0
 248.254882812 17.7138671875 238.826171875 8 225.397460938 3.142578125 c 0
 211.96875 -1.7138671875 196.541015625 0.5712890625 183.96875 6.857421875 c 0
 172.541015625 12.5712890625 163.397460938 22.857421875 157.112304688 33.7138671875 c 0
 156.826171875 34.2861328125 156.541015625 35.142578125 156.254882812 35.7138671875 c 1
 148.254882812 31.4287109375 137.96875 35.7138671875 133.397460938 42.857421875 c 0
 127.68359375 51.7138671875 132.254882812 62 139.68359375 67.4287109375 c 0
 143.68359375 70.2861328125 148.254882812 72.5712890625 152.826171875 75.142578125 c 0
 153.112304688 75.4287109375 153.112304688 76 153.112304688 76 c 2
 160.254882812 88.2861328125 174.254882812 92 187.112304688 88.5712890625 c 0
 198.826171875 91.142578125 210.826171875 92 222.254882812 89.142578125 c 0
 234.254882812 86.2861328125 245.96875 78 251.112304688 66.5712890625 c 2
218.826171875 51.142578125 m 1
 218.254882812 52.2861328125 218.254882812 51.7138671875 218.826171875 50.857421875 c 1
 218.826171875 51.142578125 l 1
EndSplineSet
EndChar

StartChar: at
Encoding: 64 64 59
Width: 901
Flags: HW
LayerCount: 2
Fore
SplineSet
889.6484375 -22.2861328125 m 2
 889.6484375 -22.5712890625 l 2
 901.6484375 -78.5712890625 857.6484375 -110.857421875 811.077148438 -130.286132812 c 0
 743.36328125 -158.571289062 672.219726562 -179.428710938 599.6484375 -190.857421875 c 0
 467.077148438 -211.428710938 328.505859375 -199.142578125 207.077148438 -139.428710938 c 0
 97.6484375 -85.4287109375 39.0771484375 2 22.2197265625 121.142578125 c 0
 5.36328125 240.857421875 -1.494140625 375.428710938 39.6484375 490.857421875 c 0
 75.0771484375 589.713867188 146.505859375 671.142578125 250.219726562 701.142578125 c 0
 355.6484375 731.713867188 473.36328125 711.713867188 572.791015625 670.286132812 c 0
 671.934570312 628.857421875 760.505859375 558.286132812 800.505859375 456.571289062 c 0
 837.6484375 361.713867188 826.219726562 249.142578125 751.934570312 174.857421875 c 0
 690.505859375 113.713867188 572.791015625 86.857421875 515.077148438 168 c 0
 498.791015625 191.142578125 491.077148438 218.286132812 487.934570312 246 c 1
 471.36328125 211.713867188 450.505859375 180.286132812 422.505859375 155.428710938 c 0
 354.505859375 95.4287109375 240.791015625 78.857421875 181.6484375 160 c 0
 117.6484375 248 162.505859375 360.286132812 239.077148438 423.428710938 c 0
 284.505859375 460.571289062 339.077148438 484 393.934570312 503.713867188 c 0
 436.505859375 518.857421875 486.505859375 531.713867188 521.6484375 495.428710938 c 0
 522.219726562 494.571289062 522.505859375 494 523.077148438 493.142578125 c 1
 523.934570312 496 524.791015625 498.857421875 525.6484375 501.428710938 c 0
 533.934570312 524.286132812 569.36328125 515.142578125 562.791015625 491.142578125 c 0
 551.6484375 450.857421875 541.934570312 405.428710938 529.6484375 360.571289062 c 0
 527.6484375 345.428710938 526.219726562 330.571289062 525.36328125 315.428710938 c 0
 522.791015625 266.286132812 521.36328125 199.142578125 568.791015625 168.857421875 c 0
 615.36328125 139.428710938 678.791015625 160.857421875 716.505859375 194.286132812 c 0
 754.505859375 228.286132812 777.6484375 276 782.219726562 326.571289062 c 0
 800.505859375 524 599.36328125 645.428710938 427.934570312 672 c 0
 334.791015625 686.286132812 231.934570312 674 159.6484375 608.857421875 c 0
 88.505859375 544.857421875 58.791015625 448 51.6484375 355.428710938 c 0
 44.505859375 261.428710938 47.0771484375 154.286132812 73.9345703125 63.142578125 c 0
 103.934570312 -38.2861328125 187.6484375 -96.2861328125 284.219726562 -129.713867188 c 0
 379.6484375 -162.571289062 483.077148438 -168.857421875 582.791015625 -154.571289062 c 0
 631.6484375 -147.713867188 679.36328125 -135.713867188 726.219726562 -120.571289062 c 0
 761.6484375 -109.142578125 863.934570312 -86 852.505859375 -32.5712890625 c 0
 847.077148438 -8.2861328125 884.505859375 1.7138671875 889.6484375 -22.2861328125 c 2
235.6484375 160 m 0
 312.791015625 105.142578125 405.934570312 177.142578125 442.791015625 244.571289062 c 0
 465.934570312 286.571289062 481.36328125 333.428710938 494.219726562 381.142578125 c 0
 498.505859375 408.857421875 504.791015625 436.571289062 513.077148438 463.713867188 c 1
 507.077148438 461.142578125 499.934570312 461.713867188 493.934570312 468 c 0
 463.6484375 499.142578125 400.505859375 466.286132812 367.934570312 452.857421875 c 0
 325.077148438 435.428710938 281.934570312 413.142578125 248.505859375 380.286132812 c 0
 191.077148438 324.286132812 157.36328125 215.713867188 235.6484375 160 c 0
EndSplineSet
EndChar

StartChar: A
Encoding: 65 65 60
Width: 552
Flags: HW
LayerCount: 2
Fore
SplineSet
540.341796875 22.2861328125 m 1
 540.056640625 22.5712890625 l 1
 547.770507812 0.2861328125 513.19921875 -9.142578125 505.485351562 12.857421875 c 0
 476.341796875 95.7138671875 447.485351562 178.286132812 418.341796875 261.142578125 c 0
 321.19921875 253.142578125 224.341796875 245.428710938 127.19921875 237.713867188 c 0
 113.19921875 202.857421875 99.19921875 168.286132812 84.9140625 134 c 0
 70.6279296875 99.142578125 56.056640625 64.2861328125 40.6279296875 29.7138671875 c 0
 31.19921875 8.2861328125 0.341796875 26.857421875 9.7705078125 48 c 0
 24.6279296875 81.4287109375 38.6279296875 115.428710938 52.6279296875 149.142578125 c 0
 64.6279296875 178.571289062 75.7705078125 208.571289062 86.9140625 238.286132812 c 0
 75.7705078125 246.571289062 79.19921875 270.286132812 97.4853515625 271.713867188 c 0
 98.056640625 271.713867188 98.9140625 271.713867188 99.7705078125 271.713867188 c 0
 147.19921875 402.857421875 186.9140625 536.857421875 218.056640625 673.142578125 c 0
 223.19921875 695.142578125 254.9140625 686.857421875 252.627929688 665.713867188 c 1
 257.485351562 678.286132812 262.056640625 690.571289062 266.627929688 703.142578125 c 0
 273.19921875 720 295.19921875 720.571289062 301.19921875 703.142578125 c 2
 443.19921875 298.571289062 l 2
 457.770507812 297.713867188 461.19921875 280 453.485351562 269.713867188 c 2
 540.341796875 22.2861328125 l 1
142.627929688 275.142578125 m 1
 230.627929688 282.286132812 318.341796875 289.142578125 406.341796875 296.286132812 c 1
 283.485351562 646 l 1
 237.485351562 522 191.19921875 398 142.627929688 275.142578125 c 1
EndSplineSet
EndChar

StartChar: B
Encoding: 66 66 61
Width: 603
Flags: HW
LayerCount: 2
Fore
SplineSet
452.72265625 366.857421875 m 2
 453.294921875 366 l 2
 528.72265625 341.142578125 613.008789062 282.571289062 587.294921875 183.142578125 c 0
 560.4375 79.7138671875 449.294921875 51.4287109375 364.4375 38.5712890625 c 0
 304.151367188 29.4287109375 243.294921875 29.142578125 183.008789062 36.5712890625 c 1
 183.580078125 32.5712890625 183.866210938 28.2861328125 184.4375 24.2861328125 c 0
 187.580078125 -0.2861328125 153.294921875 -10.5712890625 149.866210938 14 c 0
 148.4375 23.4287109375 147.580078125 32.857421875 146.4375 42.2861328125 c 0
 115.866210938 48 85.294921875 55.142578125 55.580078125 64.857421875 c 0
 33.580078125 72 43.0087890625 109.428710938 65.0087890625 102.286132812 c 0
 90.1513671875 94 115.580078125 88 141.294921875 82.857421875 c 1
 132.72265625 162.857421875 128.4375 242.857421875 127.866210938 323.142578125 c 0
 116.4375 329.142578125 117.866210938 348 127.580078125 356 c 0
 128.151367188 425.428710938 132.151367188 494.571289062 138.72265625 563.713867188 c 1
 102.151367188 542 67.580078125 516 33.8662109375 490 c 0
 15.0087890625 475.713867188 -2.705078125 509.428710938 15.8662109375 523.713867188 c 0
 56.4375 554.857421875 98.72265625 586 143.294921875 610 c 0
 146.72265625 640.571289062 150.72265625 670.857421875 155.580078125 701.428710938 c 0
 159.580078125 726.286132812 193.866210938 715.713867188 190.151367188 691.142578125 c 0
 187.008789062 670.286132812 184.151367188 649.142578125 181.580078125 628.286132812 c 1
 213.294921875 642 246.4375 651.713867188 281.294921875 654.857421875 c 0
 362.151367188 662.286132812 453.008789062 626.571289062 493.580078125 545.713867188 c 0
 512.151367188 508.571289062 519.008789062 462 501.866210938 422.571289062 c 0
 491.294921875 398.286132812 473.294921875 380.571289062 452.72265625 366.857421875 c 2
237.580078125 608 m 2
 237.294921875 608 l 2
 216.151367188 602.286132812 195.866210938 594 176.151367188 584.571289062 c 0
 168.4375 512.857421875 163.866210938 440.857421875 163.008789062 368.857421875 c 1
 239.580078125 390.857421875 319.580078125 395.428710938 397.294921875 380.857421875 c 0
 424.72265625 391.142578125 453.294921875 406.571289062 467.580078125 434.571289062 c 0
 487.294921875 473.428710938 471.008789062 521.428710938 446.151367188 552.286132812 c 0
 394.72265625 616.571289062 309.866210938 627.428710938 237.580078125 608 c 2
544.72265625 173.428710938 m 1
 545.008789062 173.142578125 l 1
 596.4375 276.286132812 470.151367188 326 399.866210938 340.857421875 c 0
 324.72265625 313.142578125 241.866210938 308.286132812 163.294921875 317.428710938 c 1
 163.866210938 237.142578125 168.72265625 156.857421875 177.866210938 77.142578125 c 0
 224.72265625 70.857421875 271.866210938 68.857421875 319.294921875 72.857421875 c 0
 394.151367188 79.4287109375 504.72265625 93.142578125 544.72265625 173.428710938 c 1
EndSplineSet
EndChar

StartChar: C
Encoding: 67 67 62
Width: 650
Flags: HW
LayerCount: 2
Fore
SplineSet
605.26953125 218.571289062 m 2
 605.26953125 218.857421875 l 2
 617.841796875 238.571289062 648.698242188 220.286132812 636.126953125 200.286132812 c 0
 563.555664062 85.142578125 447.841796875 -23.7138671875 303.26953125 5.142578125 c 0
 192.126953125 27.4287109375 88.984375 126.857421875 40.6982421875 229.142578125 c 0
 -9.5869140625 336.286132812 -1.873046875 469.142578125 63.841796875 568 c 0
 124.984375 660 232.126953125 717.713867188 340.698242188 716.286132812 c 0
 450.698242188 714.857421875 552.984375 653.713867188 613.841796875 560.857421875 c 0
 626.698242188 541.142578125 595.841796875 522.857421875 582.984375 542.286132812 c 0
 520.698242188 637.428710938 407.555664062 693.713867188 296.126953125 676.571289062 c 0
 80.984375 643.713867188 -23.873046875 389.428710938 94.984375 205.142578125 c 0
 148.698242188 122 242.984375 39.142578125 344.698242188 36.857421875 c 0
 460.126953125 34.2861328125 546.984375 126.286132812 605.26953125 218.571289062 c 2
EndSplineSet
EndChar

StartChar: D
Encoding: 68 68 63
Width: 686
Flags: HW
LayerCount: 2
Fore
SplineSet
655.11328125 535.713867188 m 1
 655.3984375 536.286132812 l 1
 698.541992188 421.428710938 664.827148438 286.857421875 600.541992188 190.571289062 c 0
 534.541992188 91.7138671875 437.11328125 30.5712890625 328.541992188 10.857421875 c 0
 222.255859375 -8.2861328125 90.255859375 -8 12.8271484375 88.2861328125 c 0
 -2.6015625 107.142578125 22.5419921875 135.428710938 37.9697265625 116.286132812 c 0
 90.8271484375 50.5712890625 175.969726562 34.2861328125 257.684570312 40.2861328125 c 0
 259.3984375 229.142578125 243.684570312 419.142578125 231.11328125 608 c 1
 179.684570312 584.286132812 131.684570312 552.286132812 88.8271484375 512.286132812 c 0
 71.3984375 496 45.9697265625 523.713867188 63.6845703125 540.286132812 c 0
 112.827148438 586 168.827148438 623.713867188 228.541992188 650 c 0
 227.3984375 665.713867188 226.255859375 681.713867188 225.3984375 697.428710938 c 0
 223.969726562 722.857421875 259.684570312 722.857421875 261.11328125 697.428710938 c 0
 261.684570312 686 262.541992188 674.857421875 263.11328125 663.428710938 c 1
 311.3984375 680.571289062 361.684570312 690.857421875 412.541992188 691.428710938 c 0
 514.827148438 692.571289062 613.969726562 645.713867188 655.11328125 535.713867188 c 1
587.969726562 240.571289062 m 2
 588.255859375 240.857421875 l 2
 639.11328125 332.857421875 661.969726562 458.571289062 606.541992188 554.857421875 c 0
 553.11328125 647.428710938 445.3984375 662 355.11328125 646.571289062 c 0
 324.541992188 641.142578125 294.827148438 632.857421875 265.969726562 622 c 0
 278.541992188 429.713867188 294.827148438 236.286132812 293.3984375 43.7138671875 c 1
 319.3984375 47.4287109375 344.541992188 53.142578125 367.3984375 60 c 0
 458.827148438 87.142578125 537.969726562 150.857421875 587.969726562 240.571289062 c 2
EndSplineSet
EndChar

StartChar: E
Encoding: 69 69 64
Width: 492
Flags: HW
LayerCount: 2
Fore
SplineSet
464.033203125 79.7138671875 m 2
 464.318359375 80 l 2
 487.17578125 79.4287109375 487.17578125 42.2861328125 464.318359375 42.857421875 c 0
 328.033203125 45.4287109375 192.033203125 31.4287109375 58.890625 0.857421875 c 0
 49.7470703125 -1.4287109375 43.17578125 3.142578125 39.4619140625 9.7138671875 c 0
 29.7470703125 6.5712890625 17.17578125 12.5712890625 15.7470703125 26.5712890625 c 0
 6.890625 121.142578125 5.4619140625 216.286132812 12.318359375 311.142578125 c 0
 15.7470703125 357.428710938 19.7470703125 405.713867188 26.890625 453.142578125 c 2
 32.033203125 657.713867188 l 2
 32.6044921875 681.428710938 68.318359375 681.428710938 67.7470703125 657.713867188 c 0
 67.17578125 638.857421875 66.890625 620 66.318359375 601.142578125 c 1
 92.318359375 651.428710938 135.461914062 678.286132812 192.890625 692.571289062 c 0
 278.033203125 714 366.033203125 720.286132812 453.17578125 713.142578125 c 0
 476.033203125 711.142578125 476.033203125 674 453.17578125 676 c 0
 370.890625 682.571289062 288.604492188 677.713867188 208.318359375 658.286132812 c 0
 174.890625 650.286132812 139.17578125 640.286132812 115.17578125 613.142578125 c 0
 92.890625 588.286132812 84.033203125 553.142578125 77.17578125 520.857421875 c 0
 71.17578125 493.142578125 66.318359375 465.142578125 62.033203125 436.857421875 c 0
 61.4619140625 414 60.890625 390.857421875 60.318359375 368 c 1
 186.604492188 374.857421875 312.604492188 381.428710938 438.890625 388.286132812 c 0
 462.033203125 389.428710938 461.747070312 352.286132812 438.890625 351.142578125 c 0
 312.318359375 344.286132812 185.747070312 337.713867188 59.17578125 330.857421875 c 0
 56.6044921875 232.857421875 54.033203125 134.857421875 51.4619140625 36.857421875 c 1
 186.890625 67.7138671875 325.461914062 82.2861328125 464.033203125 79.7138671875 c 2
EndSplineSet
EndChar

StartChar: F
Encoding: 70 70 65
Width: 483
Flags: HW
LayerCount: 2
Fore
SplineSet
451.26953125 716 m 1
 450.983398438 715.713867188 l 1
 479.555664062 715.713867188 479.555664062 678.857421875 450.983398438 678.857421875 c 0
 361.26953125 679.428710938 264.698242188 680.286132812 183.840820312 642.571289062 c 0
 105.840820312 606 77.8408203125 544 70.126953125 473.428710938 c 0
 66.126953125 438 63.8408203125 402.286132812 62.6982421875 366.571289062 c 1
 174.126953125 383.428710938 285.555664062 400.286132812 396.983398438 417.142578125 c 0
 424.983398438 421.428710938 436.983398438 386 408.698242188 381.713867188 c 0
 293.555664062 364.571289062 178.412109375 347.142578125 63.26953125 329.713867188 c 0
 62.9833984375 329.713867188 62.6982421875 329.713867188 62.126953125 329.713867188 c 0
 60.9833984375 224.857421875 69.5556640625 119.713867188 83.5556640625 16.5712890625 c 0
 86.412109375 -4 43.26953125 -8.5712890625 39.8408203125 11.7138671875 c 0
 39.5556640625 13.4287109375 38.9833984375 14.857421875 38.9833984375 16.5712890625 c 1
 38.9833984375 17.142578125 38.9833984375 17.7138671875 38.9833984375 18.2861328125 c 0
 2.412109375 237.142578125 -2.1591796875 458 27.26953125 677.713867188 c 0
 30.412109375 701.142578125 74.9833984375 701.142578125 71.8408203125 677.713867188 c 0
 68.126953125 648.857421875 64.9833984375 619.713867188 62.126953125 590.857421875 c 1
 133.840820312 700.571289062 303.840820312 716.571289062 451.26953125 716 c 1
EndSplineSet
EndChar

StartChar: G
Encoding: 71 71 66
Width: 653
Flags: HW
LayerCount: 2
Fore
SplineSet
608.857421875 358.571289062 m 2
 609.142578125 358.571289062 l 2
 645.142578125 246 651.713867188 128.571289062 630 12.857421875 c 0
 625.713867188 -9.4287109375 591.142578125 0.2861328125 595.428710938 22.2861328125 c 0
 614.857421875 126.286132812 608.857421875 231.713867188 579.142578125 333.142578125 c 0
 556 327.713867188 533.142578125 322.571289062 510 318 c 1
 564.28515625 276.571289062 570 201.713867188 542.28515625 143.142578125 c 0
 482.857421875 16.857421875 301.142578125 -21.7138671875 176 20.5712890625 c 0
 34.857421875 68.2861328125 8 250.286132812 8 378.571289062 c 0
 8.28515625 511.428710938 70.5712890625 656.857421875 207.142578125 702.857421875 c 0
 358 753.713867188 498.28515625 646.857421875 578 530.286132812 c 0
 590.857421875 511.428710938 560 494 547.142578125 512.571289062 c 0
 471.428710938 623.142578125 328.857421875 729.142578125 189.713867188 657.428710938 c 0
 82.28515625 602 41.4287109375 478.857421875 43.7138671875 366.286132812 c 0
 46 260 66 94.5712890625 185.428710938 54.2861328125 c 0
 291.142578125 18.857421875 446.857421875 45.142578125 504.571289062 147.713867188 c 0
 537.142578125 205.428710938 527.428710938 282.857421875 457.428710938 306.571289062 c 0
 456.571289062 307.142578125 455.428710938 307.142578125 454.571289062 307.428710938 c 0
 395.142578125 296.857421875 335.428710938 287.713867188 275.142578125 281.142578125 c 0
 253.428710938 278.857421875 253.142578125 309.142578125 270.28515625 315.713867188 c 0
 328.571289062 337.713867188 396 359.428710938 457.142578125 343.713867188 c 0
 500.571289062 351.713867188 544 360.571289062 586.857421875 370.857421875 c 0
 596.571289062 373.142578125 606 367.713867188 608.857421875 358.571289062 c 2
EndSplineSet
EndChar

StartChar: H
Encoding: 72 72 67
Width: 531
Flags: HW
LayerCount: 2
Fore
SplineSet
505.954101562 436 m 1
 506.240234375 436 l 2
 524.811523438 434.857421875 524.240234375 404.286132812 504.811523438 399.713867188 c 0
 501.096679688 273.428710938 500.525390625 147.142578125 503.954101562 20.857421875 c 0
 504.525390625 -3.142578125 468.811523438 -2.857421875 468.240234375 20.857421875 c 0
 464.811523438 145.428710938 465.096679688 270 468.811523438 394.571289062 c 1
 354.240234375 379.142578125 239.66796875 363.713867188 125.096679688 348 c 0
 103.954101562 345.142578125 80.240234375 343.713867188 63.66796875 332 c 0
 65.9541015625 227.428710938 65.9541015625 122.571289062 63.66796875 18 c 0
 63.0966796875 -6.2861328125 29.9541015625 -5.4287109375 27.9541015625 18 c 0
 21.3828125 97.4287109375 13.66796875 176.571289062 8.525390625 256 c 0
 6.525390625 289.142578125 9.66796875 324 27.9541015625 348.571289062 c 0
 25.3828125 464.571289062 19.9541015625 580.571289062 11.9541015625 696.286132812 c 0
 10.240234375 720 45.9541015625 720 47.66796875 696.286132812 c 0
 55.0966796875 589.142578125 59.9541015625 482 62.8115234375 374.571289062 c 0
 63.0966796875 374.571289062 63.3828125 374.571289062 63.3828125 374.571289062 c 2
 94.525390625 385.142578125 130.525390625 386 162.811523438 390.286132812 c 0
 200.811523438 395.428710938 238.525390625 400.571289062 276.240234375 405.713867188 c 0
 340.811523438 414.571289062 405.66796875 423.142578125 470.240234375 432 c 0
 473.096679688 520.857421875 477.66796875 609.713867188 484.240234375 698.286132812 c 0
 485.954101562 722 521.66796875 722 519.954101562 698.286132812 c 0
 513.3828125 610.857421875 509.096679688 523.428710938 505.954101562 436 c 1
EndSplineSet
EndChar

StartChar: I
Encoding: 73 73 68
Width: 601
Flags: HW
LayerCount: 2
Fore
SplineSet
572.392578125 706.286132812 m 0
 595.53515625 707.142578125 595.25 671.428710938 572.392578125 670.571289062 c 0
 493.25 667.428710938 413.821289062 666.571289062 334.678710938 667.428710938 c 0
 265.25 467.713867188 224.963867188 259.713867188 215.821289062 48.5712890625 c 1
 313.25 55.142578125 410.392578125 64.2861328125 507.25 76.5712890625 c 0
 530.107421875 79.4287109375 529.821289062 43.7138671875 507.25 40.857421875 c 0
 347.25 20.2861328125 186.392578125 8 25.25 3.4287109375 c 0
 2.107421875 2.857421875 2.392578125 38.5712890625 25.25 39.142578125 c 0
 77.25 40.5712890625 128.963867188 43.142578125 180.678710938 46.2861328125 c 0
 180.678710938 47.142578125 180.392578125 47.7138671875 180.392578125 48.5712890625 c 0
 189.53515625 259.713867188 228.963867188 468.571289062 297.53515625 668.286132812 c 1
 226.107421875 669.713867188 154.678710938 672.571289062 83.25 677.142578125 c 0
 60.392578125 678.571289062 60.392578125 714.286132812 83.25 712.857421875 c 0
 246.107421875 702 409.25 699.713867188 572.392578125 706.286132812 c 0
EndSplineSet
EndChar

StartChar: J
Encoding: 74 74 69
Width: 493
Flags: HW
LayerCount: 2
Fore
SplineSet
465.096679688 716 m 1
 464.810546875 716.286132812 l 1
 487.953125 716.571289062 487.66796875 678.857421875 464.810546875 678.571289062 c 0
 424.525390625 677.713867188 384.239257812 677.142578125 343.953125 676.286132812 c 1
 351.66796875 563.713867188 359.381835938 451.142578125 362.525390625 338.286132812 c 0
 365.096679688 245.428710938 371.953125 124.571289062 316.810546875 45.142578125 c 0
 265.381835938 -29.142578125 177.953125 -1.4287109375 123.953125 53.4287109375 c 0
 61.3818359375 117.428710938 21.3818359375 203.428710938 8.2392578125 294 c 0
 4.810546875 317.713867188 39.3818359375 328 42.810546875 304 c 0
 54.525390625 222.857421875 87.953125 146.571289062 142.525390625 87.4287109375 c 0
 169.381835938 58.2861328125 206.525390625 28.5712890625 247.381835938 38 c 0
 288.239257812 47.4287109375 304.810546875 93.4287109375 313.953125 131.713867188 c 0
 335.66796875 221.428710938 328.525390625 317.713867188 324.525390625 409.142578125 c 0
 320.525390625 498 314.525390625 586.857421875 308.525390625 675.428710938 c 0
 234.239257812 674.286132812 159.953125 672.857421875 85.66796875 671.428710938 c 0
 62.525390625 671.142578125 62.810546875 708.857421875 85.66796875 709.142578125 c 0
 212.239257812 711.428710938 338.525390625 713.713867188 465.096679688 716 c 1
EndSplineSet
EndChar

StartChar: K
Encoding: 75 75 70
Width: 509
Flags: HW
LayerCount: 2
Fore
SplineSet
471.223632812 713.142578125 m 2
 471.794921875 713.142578125 l 2
 490.938476562 726 508.938476562 694.571289062 489.794921875 681.713867188 c 0
 358.081054688 593.142578125 245.223632812 474.857421875 132.65234375 361.142578125 c 1
 197.223632812 375.428710938 264.3671875 363.142578125 320.3671875 317.428710938 c 0
 407.794921875 245.713867188 436.3671875 131.428710938 460.3671875 25.142578125 c 0
 465.509765625 2.2861328125 430.938476562 -7.4287109375 425.794921875 15.4287109375 c 0
 405.223632812 106 383.509765625 202.857421875 317.223632812 271.142578125 c 0
 246.081054688 344.286132812 147.223632812 346.571289062 63.794921875 293.428710938 c 0
 62.9384765625 292.857421875 62.0810546875 292.571289062 61.2236328125 292.286132812 c 0
 57.509765625 205.428710938 51.509765625 118.571289062 43.794921875 31.7138671875 c 0
 41.794921875 8.5712890625 6.0810546875 8.2861328125 8.0810546875 31.7138671875 c 0
 27.509765625 254 37.2236328125 475.142578125 19.509765625 697.713867188 c 0
 17.509765625 721.142578125 53.509765625 720.857421875 55.2236328125 697.713867188 c 0
 64.65234375 578.857421875 66.0810546875 460.571289062 62.65234375 342.286132812 c 1
 192.65234375 471.142578125 319.794921875 611.142578125 471.223632812 713.142578125 c 2
EndSplineSet
EndChar

StartChar: L
Encoding: 76 76 71
Width: 581
Flags: HW
LayerCount: 2
Fore
SplineSet
553.208984375 100 m 2
 553.208984375 99.4287109375 l 2
 576.065429688 97.4287109375 576.065429688 64 553.208984375 65.7138671875 c 0
 432.065429688 75.4287109375 310.065429688 68 191.780273438 40.5712890625 c 0
 166.3515625 34.5712890625 140.922851562 28 115.780273438 20.2861328125 c 0
 93.494140625 13.7138671875 68.9228515625 0.2861328125 44.9228515625 -0.2861328125 c 0
 4.9228515625 -1.142578125 4.3515625 30.5712890625 11.494140625 58.5712890625 c 0
 67.7802734375 278.571289062 144.3515625 494.571289062 232.63671875 704.571289062 c 0
 241.208984375 724.571289062 275.780273438 716 267.208984375 695.713867188 c 0
 188.065429688 506.857421875 120.3515625 314 64.9228515625 118 c 0
 61.494140625 105.713867188 58.0654296875 93.142578125 54.63671875 80.857421875 c 0
 52.0654296875 71.4287109375 42.63671875 53.142578125 44.63671875 43.7138671875 c 0
 47.208984375 32 49.208984375 34.5712890625 62.9228515625 39.142578125 c 0
 75.494140625 43.142578125 87.7802734375 47.4287109375 100.3515625 51.4287109375 c 0
 148.3515625 66.2861328125 197.208984375 78 246.922851562 86.5712890625 c 0
 348.065429688 104 450.922851562 108.286132812 553.208984375 100 c 2
EndSplineSet
EndChar

StartChar: M
Encoding: 77 77 72
Width: 727
Flags: HW
LayerCount: 2
Fore
SplineSet
714.098632812 29.142578125 m 1
 713.8125 29.142578125 l 1
 724.098632812 7.142578125 691.8125 -12 681.52734375 10 c 0
 586.956054688 214 655.52734375 448.857421875 582.098632812 656.286132812 c 1
 496.956054688 522.286132812 426.384765625 379.428710938 372.669921875 229.428710938 c 0
 368.098632812 216.857421875 351.8125 210 341.52734375 221.142578125 c 0
 239.8125 332.857421875 169.241210938 470 137.8125 618.286132812 c 1
 78.9560546875 454.571289062 118.956054688 266 42.9560546875 105.142578125 c 0
 35.2412109375 88.5712890625 6.0986328125 96 8.0986328125 114.571289062 c 0
 25.2412109375 282.286132812 42.384765625 450 59.52734375 617.713867188 c 0
 62.0986328125 641.713867188 99.52734375 642 96.9560546875 617.713867188 c 0
 96.384765625 614.286132812 96.0986328125 610.857421875 95.8125 607.428710938 c 1
 104.098632812 636.286132812 114.669921875 664.571289062 129.241210938 691.713867188 c 0
 136.384765625 704.857421875 161.241210938 703.713867188 163.52734375 687.142578125 c 0
 184.956054688 532.857421875 248.956054688 388.857421875 348.669921875 270.857421875 c 1
 406.384765625 424.286132812 480.098632812 570.286132812 570.384765625 706.857421875 c 0
 577.241210938 717.428710938 596.669921875 720.857421875 602.669921875 706.857421875 c 0
 696.098632812 491.428710938 615.241210938 242.286132812 714.098632812 29.142578125 c 1
EndSplineSet
EndChar

StartChar: N
Encoding: 78 78 73
Width: 583
Flags: HW
LayerCount: 2
Fore
SplineSet
557.482421875 672.571289062 m 1
 556.911132812 672.857421875 l 1
 552.33984375 466.571289062 557.482421875 260.286132812 571.768554688 54.2861328125 c 0
 573.482421875 32 543.768554688 29.7138671875 532.33984375 44 c 0
 386.053710938 230 245.196289062 420 109.482421875 613.428710938 c 1
 87.1962890625 416.286132812 77.482421875 218.286132812 81.7685546875 20 c 0
 82.33984375 -2.857421875 45.1962890625 -7.7138671875 40.0537109375 14.5712890625 c 0
 -13.0888671875 239.713867188 10.33984375 470 35.482421875 697.142578125 c 0
 38.33984375 722.857421875 80.9111328125 723.142578125 78.0537109375 697.142578125 c 0
 77.482421875 690.857421875 76.625 684.857421875 76.0537109375 678.857421875 c 1
 83.482421875 692 102.33984375 696 112.911132812 680.857421875 c 0
 245.196289062 490.571289062 383.196289062 303.713867188 525.768554688 120.286132812 c 1
 514.911132812 304.286132812 510.911132812 488.286132812 514.911132812 672.571289062 c 0
 515.482421875 698.571289062 558.053710938 698.571289062 557.482421875 672.571289062 c 1
EndSplineSet
EndChar

StartChar: O
Encoding: 79 79 74
Width: 688
Flags: HW
LayerCount: 2
Fore
SplineSet
649.385742188 491.713867188 m 1
 649.100585938 491.428710938 l 1
 704.243164062 352.286132812 677.100585938 172.286132812 564.529296875 64.857421875 c 0
 437.100585938 -56.857421875 257.671875 10.2861328125 144.814453125 114.286132812 c 0
 29.3857421875 220.286132812 -39.185546875 389.142578125 46.2431640625 531.713867188 c 0
 78.529296875 585.713867188 152.814453125 659.428710938 231.100585938 692.857421875 c 0
 232.814453125 696.857421875 236.243164062 700.286132812 241.958007812 702 c 0
 419.958007812 756.286132812 586.529296875 650.286132812 649.385742188 491.713867188 c 1
590.529296875 155.142578125 m 2
 590.814453125 155.142578125 l 2
 656.814453125 268.286132812 658.529296875 414.857421875 592.529296875 528.571289062 c 0
 549.100585938 603.142578125 479.385742188 656.286132812 398.814453125 674.857421875 c 1
 401.958007812 671.713867188 405.100585938 668.571289062 408.243164062 664.857421875 c 0
 422.814453125 648.286132812 397.671875 624 383.100585938 640.857421875 c 0
 323.671875 709.142578125 229.385742188 660.571289062 172.529296875 616.286132812 c 0
 111.958007812 569.142578125 60.529296875 510.286132812 47.1005859375 434.571289062 c 0
 22.529296875 295.713867188 118.529296875 164.857421875 232.814453125 88.857421875 c 0
 291.958007812 49.4287109375 365.100585938 22 437.958007812 35.7138671875 c 0
 507.100585938 48.5712890625 557.385742188 98.5712890625 590.529296875 155.142578125 c 2
EndSplineSet
EndChar

StartChar: P
Encoding: 80 80 75
Width: 554
Flags: HW
LayerCount: 2
Fore
SplineSet
538.318359375 513.713867188 m 0
 565.747070312 403.713867188 465.4609375 312.571289062 361.747070312 290.857421875 c 0
 299.4609375 278 234.318359375 282.286132812 172.032226562 293.142578125 c 0
 131.4609375 300.286132812 92.8896484375 313.142578125 62.603515625 338 c 1
 59.4609375 230.857421875 56.318359375 123.713867188 53.17578125 16.5712890625 c 0
 52.603515625 -6.2861328125 20.318359375 -4.857421875 17.4609375 16.5712890625 c 0
 -5.1103515625 186.857421875 18.0322265625 360 31.7470703125 530 c 0
 32.318359375 535.142578125 32.603515625 540 33.17578125 545.142578125 c 0
 34.0322265625 578 35.17578125 610.571289062 36.0322265625 643.142578125 c 0
 36.603515625 660.571289062 58.603515625 664 67.7470703125 653.713867188 c 1
 74.318359375 662.286132812 82.318359375 670.857421875 92.0322265625 678.286132812 c 0
 136.032226562 712.286132812 193.747070312 720.857421875 248.603515625 713.428710938 c 0
 359.4609375 698.286132812 509.747070312 627.713867188 538.318359375 513.713867188 c 0
504.032226562 451.142578125 m 0
 516.318359375 503.142578125 489.17578125 553.713867188 449.4609375 588 c 0
 407.747070312 624 352.889648438 648.857421875 300.318359375 666 c 0
 248.889648438 682.857421875 190.603515625 690.571289062 139.747070312 666.857421875 c 0
 85.7470703125 641.713867188 74.0322265625 595.713867188 68.8896484375 544 c 0
 67.4609375 490.857421875 65.7470703125 437.713867188 64.318359375 384.857421875 c 0
 65.4609375 383.713867188 66.8896484375 382.857421875 68.0322265625 381.428710938 c 0
 103.747070312 334.571289062 172.318359375 325.428710938 228.603515625 320 c 0
 290.603515625 314 357.4609375 316 413.747070312 344.857421875 c 0
 456.603515625 366.857421875 493.17578125 405.142578125 504.032226562 451.142578125 c 0
EndSplineSet
EndChar

StartChar: Q
Encoding: 81 81 76
Width: 659
Flags: HW
LayerCount: 2
Fore
SplineSet
641.64453125 -92.5712890625 m 2
 641.930664062 -92.2861328125 l 2
 659.930664062 -107.713867188 634.501953125 -134.571289062 616.787109375 -119.142578125 c 0
 565.64453125 -74.5712890625 519.358398438 -24.2861328125 477.930664062 30.2861328125 c 0
 382.501953125 -17.142578125 263.073242188 -6.2861328125 174.787109375 57.142578125 c 0
 51.64453125 145.428710938 -16.6416015625 318.286132812 16.2158203125 473.142578125 c 0
 33.0732421875 552.857421875 83.0732421875 622 146.787109375 658.857421875 c 0
 148.215820312 661.428710938 149.930664062 663.713867188 152.787109375 665.713867188 c 0
 298.215820312 764.857421875 485.64453125 711.713867188 577.073242188 560.286132812 c 0
 659.930664062 422.857421875 669.073242188 223.713867188 562.787109375 97.142578125 c 0
 547.073242188 78 529.073242188 62.2861328125 509.64453125 49.142578125 c 1
 549.073242188 -2.2861328125 593.073242188 -50 641.64453125 -92.5712890625 c 2
253.073242188 56.2861328125 m 1
 253.073242188 56.5712890625 l 1
 319.930664062 30.2861328125 392.787109375 33.142578125 454.501953125 62 c 1
 431.64453125 94.2861328125 410.501953125 128 391.64453125 162.857421875 c 0
 380.215820312 184 411.073242188 203.142578125 422.501953125 182 c 0
 441.64453125 146.286132812 463.64453125 112.857421875 486.787109375 80.2861328125 c 0
 521.358398438 103.428710938 550.787109375 135.142578125 571.358398438 176 c 0
 636.215820312 303.713867188 604.787109375 478.857421875 514.787109375 584.571289062 c 0
 460.215820312 648.571289062 383.930664062 680.571289062 307.358398438 678 c 1
 319.64453125 674 331.930664062 669.142578125 343.930664062 662.571289062 c 0
 364.501953125 651.428710938 346.215820312 618.571289062 325.930664062 629.713867188 c 0
 254.501953125 668.857421875 169.073242188 648 113.64453125 588.571289062 c 0
 58.501953125 529.713867188 38.2158203125 445.142578125 44.787109375 363.713867188 c 0
 55.64453125 233.142578125 134.787109375 102.286132812 253.073242188 56.2861328125 c 1
EndSplineSet
EndChar

StartChar: R
Encoding: 82 82 77
Width: 616
Flags: HW
LayerCount: 2
Fore
SplineSet
590.9140625 37.7138671875 m 1
 590.342773438 37.4287109375 l 1
 615.19921875 29.4287109375 604.627929688 -6.857421875 579.485351562 1.142578125 c 0
 531.771484375 16.2861328125 516.627929688 58 499.485351562 97.4287109375 c 0
 474.9140625 153.428710938 447.771484375 207.428710938 400.9140625 250.571289062 c 0
 354.342773438 293.713867188 296.627929688 321.713867188 235.19921875 334.571289062 c 0
 175.771484375 326.857421875 116.342773438 324 56.3427734375 325.428710938 c 1
 58.056640625 235.713867188 60.056640625 145.713867188 61.771484375 56 c 0
 62.3427734375 31.142578125 23.19921875 32.5712890625 20.6279296875 56 c 0
 8.3427734375 162.857421875 2.9140625 274.286132812 14.056640625 382.571289062 c 0
 12.056640625 483.713867188 10.056640625 584.857421875 8.056640625 686 c 0
 7.4853515625 710.286132812 48.6279296875 710.286132812 49.19921875 686 c 0
 50.3427734375 641.142578125 51.19921875 596.286132812 52.056640625 551.428710938 c 1
 79.19921875 614.857421875 124.342773438 670.286132812 196.056640625 698.857421875 c 0
 289.771484375 736.286132812 398.056640625 712 455.19921875 632.571289062 c 0
 510.627929688 555.713867188 490.342773438 447.713867188 411.19921875 390.857421875 c 0
 382.9140625 370.571289062 350.342773438 357.713867188 316.342773438 349.142578125 c 1
 339.485351562 339.713867188 362.056640625 328.286132812 382.9140625 314.286132812 c 0
 428.627929688 284 466.056640625 245.142578125 493.771484375 200 c 0
 509.771484375 174 522.342773438 146.286132812 534.627929688 118.857421875 c 0
 546.627929688 92 556.9140625 48.5712890625 590.9140625 37.7138671875 c 1
62.9140625 438 m 1
 63.19921875 438.286132812 l 1
 60.3427734375 418.857421875 58.056640625 399.428710938 56.056640625 380 c 0
 56.056640625 376 56.056640625 371.713867188 56.056640625 367.713867188 c 1
 115.485351562 382.286132812 177.485351562 384 236.627929688 372.857421875 c 0
 244.9140625 374 253.19921875 374.857421875 261.485351562 376.286132812 c 0
 325.19921875 386.857421875 390.342773438 406.857421875 424.342773438 461.142578125 c 0
 490.9140625 567.428710938 390.342773438 696.571289062 259.19921875 677.142578125 c 0
 131.19921875 658 79.19921875 542.571289062 62.9140625 438 c 1
EndSplineSet
EndChar

StartChar: glyph78
Encoding: 256 8216 78
Width: 123
VWidth: 0
Flags: HW
LayerCount: 2
Fore
SplineSet
78.5537109375 589.142578125 m 1
 78.5537109375 589.428710938 l 1
 102.553710938 586.857421875 117.411132812 558.571289062 111.411132812 530.857421875 c 0
 107.125 510 91.982421875 496.571289062 75.4111328125 496 c 0
 68.83984375 494 61.697265625 493.713867188 54.83984375 496 c 0
 31.982421875 503.428710938 20.5537109375 530 15.125 556 c 0
 4.5537109375 605.713867188 10.5537109375 659.142578125 31.125 703.713867188 c 0
 36.5537109375 715.713867188 50.2685546875 719.713867188 59.982421875 712.857421875 c 0
 69.982421875 705.713867188 73.4111328125 689.713867188 67.697265625 677.713867188 c 0
 61.697265625 664.857421875 58.83984375 656 55.697265625 640.857421875 c 0
 54.83984375 637.428710938 54.2685546875 633.713867188 53.697265625 630 c 0
 53.697265625 629.713867188 53.125 627.428710938 53.125 626.571289062 c 0
 53.125 625.713867188 53.125 624.286132812 53.125 624.286132812 c 2
 52.2685546875 617.142578125 52.2685546875 610.286132812 52.2685546875 603.142578125 c 0
 52.2685546875 594 52.83984375 588 53.697265625 581.428710938 c 1
 60.83984375 587.142578125 69.697265625 590 78.5537109375 589.142578125 c 1
EndSplineSet
EndChar

StartChar: glyph79
Encoding: 257 8217 79
Width: 130
VWidth: 0
Flags: HW
LayerCount: 2
Fore
SplineSet
113.822265625 680.857421875 m 0
 122.96484375 663.428710938 121.536132812 644.571289062 116.107421875 626.286132812 c 0
 105.536132812 590 92.96484375 554.286132812 81.25 518.286132812 c 0
 72.96484375 492.571289062 26.96484375 503.428710938 35.25 529.428710938 c 0
 43.822265625 555.428710938 52.107421875 581.713867188 60.6787109375 607.713867188 c 0
 63.822265625 617.428710938 67.25 627.142578125 69.822265625 636.857421875 c 1
 66.3935546875 636 63.25 635.713867188 59.822265625 635.713867188 c 0
 53.5361328125 632.857421875 46.6787109375 630.857421875 38.96484375 630.571289062 c 0
 31.5361328125 630.286132812 21.5361328125 634.571289062 18.3935546875 640.857421875 c 0
 8.3935546875 660.571289062 4.96484375 682.857421875 21.5361328125 700.857421875 c 0
 36.6787109375 717.428710938 62.96484375 720.571289062 82.96484375 708.857421875 c 0
 85.25 707.428710938 87.25 705.142578125 89.25 703.428710938 c 0
 99.822265625 698.571289062 108.678710938 690.571289062 113.822265625 680.857421875 c 0
EndSplineSet
EndChar

StartChar: glyph80
Encoding: 258 8220 80
Width: 274
VWidth: 0
Flags: HW
LayerCount: 2
Fore
SplineSet
49.4287109375 544.857421875 m 1
 49.4287109375 545.428710938 l 1
 49.4287109375 545.428710938 49.4287109375 545.142578125 49.4287109375 544.857421875 c 1
57.4287109375 631.142578125 m 1
 58 631.428710938 l 1
 53.4287109375 618.286132812 50.5712890625 604.286132812 48.5712890625 590.571289062 c 0
 48.2861328125 588.571289062 47.7138671875 586 47.4287109375 583.713867188 c 1
 48.2861328125 583.713867188 48.857421875 583.713867188 49.7138671875 583.713867188 c 0
 55.7138671875 583.713867188 61.4287109375 581.428710938 66.5712890625 578.286132812 c 0
 69.4287109375 579.428710938 72.5712890625 579.713867188 76 579.713867188 c 0
 89.142578125 579.142578125 99.142578125 565.428710938 99.142578125 550.857421875 c 0
 99.4287109375 525.142578125 73.7138671875 506.286132812 53.4287109375 504.286132812 c 0
 52 504.286132812 50.857421875 504.286132812 49.4287109375 504.286132812 c 0
 49.142578125 504.286132812 49.142578125 504.286132812 49.142578125 504.286132812 c 2
 47.142578125 504.286132812 45.4287109375 504.571289062 43.7138671875 504.857421875 c 0
 42.857421875 504.857421875 42.2861328125 504.857421875 41.4287109375 504.857421875 c 0
 41.142578125 504.857421875 40.857421875 505.428710938 40.2861328125 505.428710938 c 0
 36.5712890625 506.571289062 33.4287109375 508.571289062 30.2861328125 510.857421875 c 0
 27.4287109375 512.857421875 25.142578125 515.428710938 22.857421875 518.286132812 c 0
 22.2861328125 518.857421875 21.7138671875 519.428710938 21.4287109375 520 c 0
 14 530.571289062 10 544.286132812 10 557.713867188 c 0
 10 579.713867188 14.2861328125 603.142578125 19.142578125 624.286132812 c 0
 28.5712890625 664.857421875 51.4287109375 703.428710938 88.857421875 715.142578125 c 0
 110.571289062 722 119.713867188 684 98 677.142578125 c 0
 78.5712890625 671.142578125 64.857421875 652 57.4287109375 631.142578125 c 1
49.7138671875 545.713867188 m 1
 49.7138671875 545.428710938 l 1
 49.7138671875 545.713867188 l 1
223.428710938 586.571289062 m 1
 224 586.857421875 l 2
 247.142578125 589.142578125 268.857421875 564.857421875 263.713867188 538 c 0
 260.857421875 524.286132812 252 515.428710938 241.142578125 510.857421875 c 0
 233.713867188 499.428710938 221.713867188 492.286132812 207.428710938 495.713867188 c 0
 187.142578125 500.571289062 178.571289062 524.286132812 182.571289062 546 c 0
 182.571289062 546.857421875 183.428710938 547.713867188 183.428710938 548.571289062 c 0
 182.571289062 551.142578125 181.713867188 553.713867188 181.142578125 556.571289062 c 0
 178.571289062 561.142578125 177.428710938 566.857421875 178 572.571289062 c 0
 176 586 175.713867188 599.428710938 176.857421875 610.571289062 c 0
 180.857421875 651.713867188 198.571289062 687.713867188 227.428710938 712.857421875 c 0
 235.713867188 720.286132812 249.428710938 714.286132812 254.286132812 704.857421875 c 0
 260 693.428710938 255.713867188 681.428710938 247.142578125 674 c 0
 240.286132812 668 232.857421875 658 228 648.571289062 c 0
 222 637.142578125 218.857421875 628 216.571289062 614.286132812 c 0
 215.713867188 609.142578125 215.142578125 605.142578125 215.142578125 598 c 0
 215.142578125 595.713867188 215.142578125 593.142578125 215.142578125 590.571289062 c 0
 215.142578125 590.286132812 215.142578125 589.428710938 215.142578125 588.571289062 c 0
 216.857421875 587.713867188 218.286132812 586.571289062 220 585.713867188 c 0
 221.142578125 585.713867188 223.428710938 586.571289062 223.428710938 586.571289062 c 1
EndSplineSet
EndChar

StartChar: glyph81
Encoding: 259 8221 81
Width: 258
VWidth: 0
Flags: HW
LayerCount: 2
Fore
SplineSet
102.317382812 639.428710938 m 2
 102.602539062 639.428710938 l 2
 106.602539062 609.428710938 104.317382812 577.713867188 90.888671875 551.142578125 c 0
 79.4599609375 528.571289062 60.6025390625 510.571289062 38.3173828125 504.571289062 c 0
 28.888671875 502 18.888671875 508 16.3173828125 519.142578125 c 0
 14.03125 529.713867188 19.4599609375 542.286132812 28.888671875 544.857421875 c 0
 40.3173828125 548 50.6025390625 556 57.173828125 567.142578125 c 0
 65.173828125 580.571289062 68.888671875 595.428710938 68.888671875 612.571289062 c 0
 68.888671875 621.428710938 67.7451171875 629.713867188 66.3173828125 638.286132812 c 1
 63.7451171875 634.571289062 60.6025390625 630.857421875 56.888671875 628.571289062 c 0
 45.173828125 621.428710938 30.3173828125 624 20.888671875 634.857421875 c 0
 11.173828125 645.713867188 8.03125 661.428710938 11.173828125 676.571289062 c 0
 17.173828125 704.571289062 44.6025390625 727.142578125 68.03125 710.286132812 c 0
 70.888671875 708 73.4599609375 705.428710938 75.4599609375 702.286132812 c 0
 92.6025390625 690 99.173828125 662 102.317382812 639.428710938 c 2
241.173828125 669.428710938 m 1
 240.888671875 669.428710938 l 1
 247.173828125 651.713867188 248.888671875 631.142578125 247.745117188 612.286132812 c 0
 245.173828125 573.142578125 230.03125 535.428710938 203.745117188 508.857421875 c 0
 187.745117188 492.571289062 163.745117188 519.142578125 179.745117188 535.428710938 c 0
 194.888671875 550.571289062 205.173828125 569.713867188 210.602539062 591.428710938 c 0
 213.745117188 604 214.888671875 618.286132812 214.03125 632.286132812 c 1
 203.459960938 628.857421875 191.173828125 631.142578125 182.602539062 640.286132812 c 0
 182.03125 640.286132812 181.459960938 640.286132812 180.888671875 640.286132812 c 0
 155.459960938 648.286132812 153.173828125 684.286132812 170.03125 702.857421875 c 0
 184.317382812 718.571289062 207.173828125 720.286132812 223.173828125 706.857421875 c 0
 232.602539062 698.857421875 237.745117188 687.142578125 238.888671875 674.857421875 c 0
 239.745117188 673.142578125 240.602539062 671.428710938 241.173828125 669.428710938 c 1
EndSplineSet
EndChar

StartChar: S
Encoding: 83 83 82
Width: 516
Flags: HW
LayerCount: 2
Fore
SplineSet
503.963867188 195.713867188 m 2
 504.25 194.857421875 l 2
 513.678710938 62.2861328125 393.107421875 6.2861328125 296.821289062 0 c 0
 186.821289062 -7.142578125 79.9638671875 50.2861328125 12.25 149.713867188 c 0
 -2.0361328125 170.286132812 23.107421875 199.713867188 37.392578125 178.857421875 c 0
 121.107421875 56 272.25 1.142578125 398.821289062 69.142578125 c 0
 453.678710938 98.5712890625 481.963867188 157.142578125 462.53515625 225.713867188 c 0
 444.53515625 290.286132812 390.53515625 331.713867188 337.963867188 355.142578125 c 0
 237.678710938 400.286132812 100.25 401.713867188 29.107421875 508.857421875 c 0
 -0.3212890625 553.428710938 0.25 608 37.9638671875 645.713867188 c 0
 74.53515625 682.286132812 128.821289062 700.571289062 175.392578125 709.428710938 c 0
 276.821289062 728.857421875 382.53515625 704 467.678710938 637.142578125 c 0
 486.53515625 622.286132812 468.821289062 586.857421875 449.678710938 601.713867188 c 0
 346.25 682.857421875 203.963867188 701.142578125 90.25 636 c 0
 61.107421875 619.428710938 31.6787109375 592.571289062 48.25 551.428710938 c 0
 60.25 521.713867188 86.53515625 500.571289062 110.53515625 484.857421875 c 0
 165.678710938 448.571289062 229.107421875 436 289.678710938 416.857421875 c 0
 385.107421875 386.571289062 494.821289062 324.286132812 503.963867188 195.713867188 c 2
EndSplineSet
EndChar

StartChar: T
Encoding: 84 84 83
Width: 586
Flags: HW
LayerCount: 2
Fore
SplineSet
555.213867188 712.857421875 m 2
 581.213867188 713.142578125 581.213867188 670.857421875 555.213867188 670.857421875 c 0
 479.213867188 670.571289062 402.927734375 670.286132812 326.642578125 670.286132812 c 1
 341.5 451.713867188 333.5 232.571289062 302.927734375 15.7138671875 c 0
 299.213867188 -11.142578125 260.356445312 0.2861328125 264.071289062 26.857421875 c 0
 294.071289062 240 300.927734375 455.713867188 286.356445312 670.286132812 c 1
 27.5 669.713867188 l 2
 1.5 669.428710938 1.5 711.713867188 27.5 711.713867188 c 0
 115.213867188 712 203.213867188 712.286132812 291.213867188 712.286132812 c 0
 297.78515625 717.428710938 308.071289062 717.428710938 315.78515625 712.286132812 c 2
 555.213867188 712.857421875 l 2
EndSplineSet
EndChar

StartChar: U
Encoding: 85 85 84
Width: 557
Flags: HW
LayerCount: 2
Fore
SplineSet
504.578125 665.142578125 m 0
 543.720703125 540.857421875 556.006835938 409.142578125 537.720703125 280 c 0
 523.149414062 175.142578125 482.291992188 86 380.578125 37.7138671875 c 0
 295.435546875 -2.5712890625 186.291992188 -23.7138671875 110.578125 45.4287109375 c 0
 31.720703125 117.713867188 22.86328125 240.571289062 13.720703125 339.142578125 c 0
 2.578125 460.857421875 8.0068359375 583.142578125 27.435546875 703.713867188 c 0
 31.1494140625 726 65.435546875 716.571289062 62.0068359375 694.571289062 c 0
 40.2919921875 560 37.720703125 422.857421875 55.1494140625 287.713867188 c 0
 70.578125 169.713867188 108.006835938 12.857421875 264.86328125 36.857421875 c 0
 322.006835938 45.7138671875 383.720703125 70.2861328125 426.578125 109.142578125 c 0
 472.006835938 150.286132812 490.006835938 208.286132812 499.720703125 266.286132812 c 0
 521.720703125 396.286132812 509.435546875 530.286132812 470.006835938 656 c 0
 463.435546875 677.428710938 497.720703125 686.571289062 504.578125 665.142578125 c 0
EndSplineSet
EndChar

StartChar: V
Encoding: 86 86 85
Width: 683
Flags: HW
LayerCount: 2
Fore
SplineSet
643.069335938 706.286132812 m 0
 657.354492188 724 682.498046875 698.571289062 668.211914062 680.857421875 c 0
 509.354492188 483.142578125 413.069335938 246 319.069335938 12.857421875 c 0
 312.211914062 -4 291.354492188 -4 284.498046875 12.857421875 c 0
 192.783203125 237.142578125 101.069335938 461.142578125 9.3544921875 685.428710938 c 0
 0.783203125 706.571289062 35.3544921875 716 43.9267578125 694.857421875 c 0
 129.926757812 484.857421875 215.926757812 274.571289062 301.926757812 64.5712890625 c 1
 393.069335938 290 489.640625 515.428710938 643.069335938 706.286132812 c 0
EndSplineSet
EndChar

StartChar: W
Encoding: 87 87 86
Width: 889
Flags: HW
LayerCount: 2
Fore
SplineSet
842.395507812 704.286132812 m 1
 842.681640625 704.286132812 l 2
 856.681640625 723.428710938 888.681640625 705.142578125 874.681640625 686 c 0
 733.5390625 492.571289062 750.110351562 233.428710938 615.5390625 36.2861328125 c 0
 607.82421875 25.142578125 590.967773438 24 583.5390625 36.2861328125 c 0
 510.967773438 158.286132812 467.252929688 293.713867188 454.110351562 434 c 1
 384.967773438 292.286132812 315.82421875 150.857421875 246.681640625 9.142578125 c 0
 239.252929688 -6.2861328125 217.82421875 0 212.967773438 13.4287109375 c 0
 135.5390625 221.142578125 67.5390625 432 8.681640625 645.713867188 c 0
 2.681640625 668.571289062 38.1103515625 678 44.3955078125 655.428710938 c 0
 98.9677734375 456.286132812 162.395507812 259.428710938 233.252929688 65.4287109375 c 1
 306.395507812 214.857421875 379.252929688 364.571289062 452.395507812 514 c 0
 460.681640625 531.142578125 486.395507812 522 486.681640625 504.857421875 c 0
 489.5390625 356 528.967773438 212 600.395507812 81.7138671875 c 1
 716.395507812 274.571289062 707.5390625 519.142578125 842.395507812 704.286132812 c 1
EndSplineSet
EndChar

StartChar: X
Encoding: 88 88 87
Width: 564
Flags: HW
LayerCount: 2
Fore
SplineSet
513.96484375 678.857421875 m 2
 514.25 679.428710938 l 2
 528.25 700.286132812 563.678710938 681.142578125 549.678710938 660.286132812 c 0
 474.821289062 548.857421875 395.678710938 439.713867188 313.107421875 333.142578125 c 1
 389.392578125 236.857421875 465.678710938 140.571289062 541.96484375 44.2861328125 c 0
 557.678710938 24.5712890625 521.96484375 5.7138671875 506.536132812 25.142578125 c 0
 433.392578125 117.142578125 360.536132812 209.142578125 287.678710938 301.142578125 c 1
 208.821289062 200.857421875 127.107421875 102.571289062 41.96484375 7.142578125 c 0
 25.107421875 -11.7138671875 -3.75 15.142578125 13.107421875 34 c 0
 99.96484375 131.142578125 182.821289062 230.857421875 262.536132812 332.857421875 c 0
 253.107421875 344.571289062 243.678710938 356.286132812 234.25 368.286132812 c 0
 155.96484375 467.428710938 80.25 571.142578125 48.8212890625 692.571289062 c 0
 42.5361328125 716.286132812 81.96484375 726.286132812 88.25 702.571289062 c 0
 119.678710938 580.571289062 197.96484375 477.713867188 276.821289062 378 c 0
 280.25 373.428710938 283.96484375 369.142578125 287.392578125 364.571289062 c 1
 366.25 467.142578125 441.96484375 571.713867188 513.96484375 678.857421875 c 2
EndSplineSet
EndChar

StartChar: Y
Encoding: 89 89 88
Width: 472
Flags: HW
LayerCount: 2
Fore
SplineSet
427.435546875 708 m 2
 427.435546875 708.286132812 l 2
 440.006835938 727.142578125 471.149414062 709.428710938 458.29296875 690.286132812 c 0
 392.578125 592 330.864257812 491.142578125 273.435546875 388 c 0
 278.006835938 382 282.578125 376 287.149414062 370 c 0
 300.864257812 351.713867188 270.006835938 334 256.29296875 352 c 0
 255.721679688 352.571289062 255.149414062 353.428710938 254.578125 354 c 1
 193.435546875 241.713867188 136.864257812 126.857421875 85.7216796875 9.4287109375 c 0
 76.578125 -11.4287109375 45.7216796875 6.857421875 54.8642578125 27.4287109375 c 0
 108.006835938 149.428710938 167.149414062 268.571289062 231.149414062 385.142578125 c 0
 157.721679688 482 84.578125 578.857421875 11.435546875 675.713867188 c 0
 -2.2783203125 694 28.578125 711.713867188 42.29296875 693.713867188 c 0
 111.435546875 602.286132812 180.864257812 510.571289062 250.006835938 418.857421875 c 1
 305.435546875 517.428710938 364.29296875 614 427.435546875 708 c 2
EndSplineSet
EndChar

StartChar: Z
Encoding: 90 90 89
Width: 601
Flags: HW
LayerCount: 2
Fore
SplineSet
570.390625 81.142578125 m 0
 596.961914062 79.4287109375 597.248046875 36.5712890625 570.390625 38.2861328125 c 0
 390.390625 50.2861328125 210.10546875 38 33.533203125 0.857421875 c 0
 9.248046875 -4.2861328125 -1.0380859375 25.7138671875 17.533203125 40 c 0
 162.10546875 151.428710938 292.676757812 281.713867188 405.533203125 426.857421875 c 0
 434.676757812 464.286132812 462.390625 502.857421875 488.961914062 542.286132812 c 0
 510.390625 574.286132812 570.390625 654.857421875 502.10546875 671.142578125 c 0
 476.10546875 677.428710938 447.533203125 668.857421875 422.10546875 664.571289062 c 0
 396.390625 660.286132812 370.390625 655.713867188 344.676757812 651.428710938 c 0
 292.961914062 642.571289062 241.533203125 633.713867188 189.819335938 624.857421875 c 0
 163.533203125 620.286132812 152.390625 661.428710938 178.676757812 666 c 0
 243.248046875 677.142578125 307.819335938 688 372.390625 699.142578125 c 0
 419.819335938 707.428710938 480.390625 727.713867188 527.248046875 707.428710938 c 0
 636.676757812 660.286132812 533.533203125 530.857421875 492.676757812 473.713867188 c 0
 381.819335938 318.286132812 252.10546875 178.857421875 106.676757812 57.7138671875 c 1
 259.819335938 83.4287109375 415.248046875 91.4287109375 570.390625 81.142578125 c 0
EndSplineSet
EndChar

StartChar: bracketleft
Encoding: 91 91 90
Width: 200
Flags: HW
LayerCount: 2
Fore
SplineSet
168.20703125 -155.142578125 m 2
 168.4921875 -154.857421875 l 2
 190.778320312 -148.857421875 200.20703125 -184.857421875 177.920898438 -190.571289062 c 0
 107.920898438 -208.857421875 27.6357421875 -205.713867188 13.349609375 -116.286132812 c 0
 5.349609375 -66 10.7783203125 -11.7138671875 11.064453125 39.142578125 c 0
 11.349609375 98.5712890625 11.9208984375 158 13.064453125 217.142578125 c 0
 15.064453125 338 18.20703125 459.142578125 23.349609375 580 c 0
 24.7783203125 616.571289062 25.064453125 659.713867188 50.4921875 688.571289062 c 0
 75.349609375 716.857421875 112.778320312 717.713867188 147.064453125 715.713867188 c 0
 169.920898438 714.286132812 169.920898438 677.142578125 147.064453125 678.571289062 c 0
 128.20703125 679.713867188 104.778320312 682.571289062 87.6357421875 672.286132812 c 0
 66.7783203125 659.713867188 62.4921875 633.142578125 60.4921875 610.857421875 c 0
 56.7783203125 571.142578125 57.064453125 530.571289062 55.6357421875 490.857421875 c 0
 52.4921875 404.286132812 50.20703125 318 48.7783203125 231.428710938 c 0
 47.064453125 142.571289062 46.20703125 53.4287109375 46.20703125 -35.4287109375 c 0
 46.20703125 -69.142578125 38.7783203125 -119.428710938 62.4921875 -147.142578125 c 0
 87.9208984375 -176.571289062 136.778320312 -163.428710938 168.20703125 -155.142578125 c 2
EndSplineSet
EndChar

StartChar: backslash
Encoding: 92 92 91
Width: 241
Flags: HW
LayerCount: 2
Fore
SplineSet
230.590820312 22.857421875 m 2
 230.876953125 22.857421875 l 2
 238.01953125 0 203.448242188 -9.7138671875 196.305664062 12.857421875 c 0
 125.448242188 236.857421875 37.734375 463.142578125 9.162109375 698.286132812 c 0
 6.3056640625 722 42.01953125 721.713867188 44.876953125 698.286132812 c 0
 58.876953125 582.571289062 90.3056640625 470.286132812 124.590820312 359.428710938 c 0
 159.162109375 247.142578125 195.162109375 135.142578125 230.590820312 22.857421875 c 2
EndSplineSet
EndChar

StartChar: bracketright
Encoding: 93 93 92
Width: 209
Flags: HW
LayerCount: 2
Fore
SplineSet
197.51171875 617.142578125 m 2
 197.2265625 616.857421875 l 2
 203.2265625 561.428710938 198.655273438 503.428710938 197.797851562 447.713867188 c 0
 196.940429688 386.857421875 194.940429688 326 192.369140625 265.142578125 c 0
 186.940429688 141.142578125 178.940429688 17.142578125 166.940429688 -106.286132812 c 0
 163.51171875 -140.857421875 160.369140625 -176.286132812 126.083984375 -192.286132812 c 0
 87.7978515625 -210.286132812 49.2265625 -188.857421875 17.2265625 -167.428710938 c 0
 -1.916015625 -154.571289062 15.7978515625 -122.286132812 35.2265625 -135.428710938 c 0
 53.2265625 -147.428710938 80.9404296875 -168.857421875 103.797851562 -161.142578125 c 0
 129.797851562 -152.286132812 129.51171875 -123.428710938 131.797851562 -99.142578125 c 0
 135.797851562 -58 139.2265625 -16.5712890625 142.369140625 24.5712890625 c 0
 148.940429688 109.428710938 153.797851562 194.571289062 157.2265625 279.713867188 c 0
 160.940429688 367.428710938 162.940429688 454.857421875 163.2265625 542.571289062 c 0
 163.2265625 576.857421875 169.2265625 622 150.940429688 652.571289062 c 0
 128.083984375 691.142578125 76.6552734375 678.286132812 42.083984375 669.713867188 c 0
 19.7978515625 664 10.369140625 699.713867188 32.6552734375 705.428710938 c 0
 68.9404296875 714.571289062 111.51171875 724 146.655273438 705.428710938 c 0
 179.797851562 688 193.51171875 653.428710938 197.51171875 617.142578125 c 2
EndSplineSet
EndChar

StartChar: underscore
Encoding: 95 95 93
Width: 610
Flags: HW
LayerCount: 2
Fore
SplineSet
579.786132812 -145.142578125 m 0
 601.21484375 -144.286132812 601.21484375 -180 579.786132812 -180.857421875 c 0
 396.642578125 -187.713867188 213.21484375 -188.286132812 30.0712890625 -181.713867188 c 0
 8.642578125 -180.857421875 8.642578125 -145.142578125 30.0712890625 -146 c 0
 213.21484375 -152.571289062 396.642578125 -152.286132812 579.786132812 -145.142578125 c 0
EndSplineSet
EndChar

StartChar: a
Encoding: 97 97 94
Width: 503
Flags: HW
LayerCount: 2
Fore
SplineSet
473.048828125 45.7138671875 m 0
 498.477539062 47.142578125 498.477539062 1.7138671875 473.048828125 0.2861328125 c 0
 405.048828125 -3.4287109375 379.048828125 66.857421875 369.333984375 134.571289062 c 1
 367.90625 132.571289062 367.048828125 130.571289062 365.620117188 128.571289062 c 0
 311.333984375 52.857421875 223.333984375 9.4287109375 138.477539062 33.142578125 c 0
 60.7626953125 54.857421875 0.4775390625 141.713867188 8.7626953125 234.857421875 c 0
 13.048828125 282.286132812 35.90625 322.571289062 64.4775390625 356 c 0
 96.19140625 393.142578125 132.477539062 427.142578125 169.620117188 456.571289062 c 0
 239.620117188 512 334.19140625 544.286132812 411.620117188 492.571289062 c 1
 421.90625 510 447.333984375 506.857421875 447.90625 481.713867188 c 0
 450.477539062 383.713867188 441.333984375 282.286132812 402.762695312 195.142578125 c 0
 403.90625 130.286132812 414.19140625 42.5712890625 473.048828125 45.7138671875 c 0
195.333984375 72.5712890625 m 2
 195.333984375 72.857421875 l 2
 269.048828125 77.142578125 328.762695312 134.571289062 363.620117188 206 c 0
 361.333984375 288.857421875 372.477539062 371.713867188 396.19140625 450 c 0
 318.477539062 505.142578125 227.333984375 453.428710938 163.048828125 395.142578125 c 0
 111.90625 348.571289062 39.6201171875 288.571289062 48.4775390625 203.713867188 c 0
 57.333984375 119.713867188 125.333984375 68.5712890625 195.333984375 72.5712890625 c 2
EndSplineSet
EndChar

StartChar: b
Encoding: 98 98 95
Width: 456
Flags: HW
LayerCount: 2
Fore
SplineSet
441.500976562 281.713867188 m 1
 441.500976562 282 l 1
 456.358398438 186.571289062 417.21484375 93.4287109375 340.358398438 53.4287109375 c 0
 251.500976562 7.142578125 155.500976562 37.142578125 67.5009765625 71.7138671875 c 1
 68.072265625 54.857421875 68.6435546875 38 69.21484375 21.142578125 c 0
 70.072265625 1.4287109375 43.21484375 -8.5712890625 36.072265625 10.5712890625 c 0
 4.9296875 94.857421875 -2.2138671875 190.571289062 24.3583984375 274.857421875 c 0
 19.21484375 415.142578125 14.3583984375 555.713867188 9.21484375 696 c 0
 8.3583984375 722.857421875 44.072265625 722.571289062 44.9296875 696 c 0
 49.21484375 579.428710938 53.21484375 462.571289062 57.5009765625 346 c 1
 59.21484375 348.857421875 60.6435546875 351.713867188 62.3583984375 354.571289062 c 0
 113.500976562 430.571289062 194.643554688 474.571289062 277.786132812 458.857421875 c 0
 357.500976562 443.713867188 426.643554688 376 441.500976562 281.713867188 c 1
357.786132812 113.142578125 m 0
 430.9296875 179.713867188 422.358398438 314.857421875 351.21484375 378.571289062 c 0
 277.500976562 444.571289062 174.643554688 428.571289062 110.072265625 354.857421875 c 0
 87.21484375 328.857421875 71.21484375 298.286132812 60.3583984375 265.428710938 c 0
 62.072265625 215.713867188 64.072265625 165.713867188 65.7861328125 116 c 0
 156.9296875 79.4287109375 272.643554688 36 357.786132812 113.142578125 c 0
EndSplineSet
EndChar

StartChar: c
Encoding: 99 99 96
Width: 450
Flags: HW
LayerCount: 2
Fore
SplineSet
398.748046875 176.286132812 m 0
 398.748046875 203.713867188 438.748046875 203.713867188 438.748046875 176.286132812 c 0
 438.748046875 123.428710938 404.462890625 83.142578125 363.3203125 58.2861328125 c 0
 319.60546875 32 266.176757812 6.857421875 215.891601562 1.142578125 c 0
 131.3203125 -8.2861328125 59.60546875 57.142578125 28.1767578125 136.286132812 c 0
 -0.1083984375 207.428710938 1.8916015625 290.286132812 30.748046875 361.142578125 c 0
 93.60546875 514.857421875 285.034179688 565.713867188 412.176757812 470.571289062 c 0
 433.034179688 454.857421875 413.034179688 418 391.891601562 433.713867188 c 0
 334.748046875 476.571289062 262.176757812 487.142578125 195.60546875 465.428710938 c 0
 74.748046875 425.713867188 15.8916015625 274.857421875 65.0341796875 152.286132812 c 0
 92.1767578125 84.5712890625 153.3203125 30.857421875 225.3203125 45.4287109375 c 0
 263.60546875 53.4287109375 302.462890625 72 337.034179688 91.4287109375 c 0
 367.891601562 108.857421875 398.748046875 135.713867188 398.748046875 176.286132812 c 0
EndSplineSet
EndChar
